<svg xmlns="http://www.w3.org/2000/svg" viewBox="0 0 54.13 74.25"><defs><style>.cls-1{isolation:isolate;}.cls-2{fill:#f6a774;}.cls-17,.cls-3{fill:#dadada;}.cls-11,.cls-3,.cls-7{mix-blend-mode:multiply;}.cls-4{fill:#f8bb94;}.cls-5{fill:#fff;}.cls-6{fill:#00b0b1;}.cls-7{fill:#c6c6c6;}.cls-8{fill:#002838;}.cls-9{fill:#003446;}.cls-10{fill:#cc8a64;}.cls-11{fill:#ededed;}.cls-12{fill:#313130;}.cls-13{fill:#804912;}.cls-14{fill:#da9668;}.cls-15{fill:#d19064;}.cls-16{fill:#d57726;}</style></defs><g class="cls-1"><g id="Ebene_2" data-name="Ebene 2"><g id="Capa_1" data-name="Capa 1"><rect class="cls-2" x="22.3" y="51.04" width="9.09" height="5.41"/><path class="cls-3" d="M28.06,55.72c-1.91-.6-3.5-1.8-3.74-3.89a1.86,1.86,0,0,1,.07-.79H22.3v5.41h9.09v-.68A6.07,6.07,0,0,1,28.06,55.72Z"/><path class="cls-4" d="M54.13,74.25c-.14-5.68-1.45-10.19-6.26-11.91-5.51-2-16.23-6.12-16.23-6.12H22.49S11.77,60.35,6.26,62.34C1.45,64.06.14,68.57,0,74.25Z"/><path class="cls-5" d="M54.13,74.25c-.14-5.68-1.45-10.19-6.26-11.91-5.51-2-16.23-6.12-16.23-6.12H22.49S11.77,60.35,6.26,62.34C1.45,64.06.14,68.57,0,74.25Z"/><path class="cls-6" d="M25.16,63.32a1.12,1.12,0,0,1,.13-.15l-.13.15-.28,10.93h4.51L29,63.32l.88-4a1.95,1.95,0,0,0-1.11-2.91,9,9,0,0,0-2.44-.09,2,2,0,0,0-1.89.77,1.92,1.92,0,0,0-.13,2.23Z"/><path class="cls-7" d="M25,62.69s2.67-1.37,3.95.63a3.9,3.9,0,0,0-3.81,0Z"/><path class="cls-8" d="M54.13,74.25c-.14-5.68-1.45-10.19-6.26-11.91-5.51-2-12-4.49-12-4.49l-3.48,16.4Z"/><path class="cls-8" d="M22,74.25,18.33,57.82s-6.56,2.53-12.07,4.52C1.45,64.06.14,68.57,0,74.25Z"/><polygon class="cls-7" points="27.06 56.22 22.7 66.89 18.33 57.82 27.06 56.22"/><path class="cls-5" d="M22.3,55.43a34.77,34.77,0,0,1-4,2.39L22.52,65a64.88,64.88,0,0,1,4.54-8.78Z"/><polygon class="cls-7" points="27.02 56.22 31.39 66.89 35.76 57.82 27.02 56.22"/><path class="cls-5" d="M31.78,55.43a36.06,36.06,0,0,0,4,2.39L31.57,65A65.39,65.39,0,0,0,27,56.22Z"/><path class="cls-9" d="M14.62,69.54s3.71.3,2.55,1.51L12,72.84l.84,1.41H22L18.33,57.82l-7.68,2.9L11,66.89S10.93,70.27,14.62,69.54Z"/><path class="cls-9" d="M41.31,74.25l.82-1.41L37,71.05c-1.16-1.21,2.54-1.51,2.54-1.51,3.7.73,3.6-2.65,3.6-2.65l.37-6.17-7.67-2.9L32.38,74.25Z"/><path class="cls-2" d="M39.52,33.78c-.19,2.89,1.13,5.32,2.94,5.43s3.44-2.12,3.62-5S45,28.89,43.13,28.77,39.7,30.9,39.52,33.78Z"/><path class="cls-10" d="M42.08,32.75s0-.16,0-.42a4.61,4.61,0,0,1,.3-1.06c.17-.4.47-.86.92-.93a1.38,1.38,0,0,1,.35,0l.18.06.13.07a1.54,1.54,0,0,1,.52.58,3.61,3.61,0,0,1,.31.79,3.41,3.41,0,0,1,.13.81c0,.29,0,.58,0,.84s0,.5-.08.72-.07.44-.09.62-.07.35-.1.49l-.08.42.19-.39c0-.13.13-.27.2-.45s.14-.39.21-.62.12-.49.18-.76a5.67,5.67,0,0,0,.11-.84,3.23,3.23,0,0,0-.09-1,4,4,0,0,0-.35-.94A2.14,2.14,0,0,0,44.3,30a1.82,1.82,0,0,0-.28-.13l-.25-.06a2,2,0,0,0-.54,0,1.37,1.37,0,0,0-.81.58,2.34,2.34,0,0,0-.32.74A3.61,3.61,0,0,0,42,32.32,3.15,3.15,0,0,0,42.08,32.75Z"/><path class="cls-10" d="M42.08,32.75s-.2-.29,1-.46c0,0,1.33.08.75,1.56a4.17,4.17,0,0,0-.26,1c-.06.49.24,1.11,0,1.56A.9.9,0,0,1,42,36.13c-.12-.47.38-1.33.61-1.7A1.12,1.12,0,0,0,42.08,32.75Z"/><path class="cls-10" d="M42,36.07l-.08.08a1,1,0,0,0-.14.28.49.49,0,0,0,0,.21.65.65,0,0,0,0,.24c0,.08,0,.16.07.24a.86.86,0,0,0,.13.23.83.83,0,0,0,.16.21l.19.15a.83.83,0,0,0,.39.17,1.45,1.45,0,0,0,.4,0,1.6,1.6,0,0,0-.22-.33,1.42,1.42,0,0,0-.12-.13l-.1-.15a1.49,1.49,0,0,0-.12-.14c-.05,0-.06-.1-.09-.15a1.17,1.17,0,0,1-.19-.3.52.52,0,0,1-.07-.15.47.47,0,0,1-.06-.15A2.54,2.54,0,0,1,42,36.07Z"/><path class="cls-2" d="M9.14,23.56S7.07,45.22,17.67,52c0,0,5.3,5.21,11.67.64,0,0,9.44-5.09,11-9,0,0,8.15-35.18-11.64-36.31C28.69,7.4,11.79,3.48,9.14,23.56Z"/><path class="cls-11" d="M28.69,7.4a16.27,16.27,0,0,0-3.33-.31,15.58,15.58,0,0,1,8,7.83,44,44,0,0,1,4.58,16.85c.39,7.49-3.46,15.13-10.19,18.75-2.81,1.51-6.32,2.93-9.55,2a8.92,8.92,0,0,0,11.15.2s9.44-5.09,11-9C40.33,43.71,48.48,8.53,28.69,7.4Z"/><path class="cls-12" d="M29.16,28.87a1.71,1.71,0,1,0,1.71-1.7A1.7,1.7,0,0,0,29.16,28.87Z"/><path class="cls-5" d="M30.77,27.78c-.14.19.06.57.44.85s.8.34.94.15-.06-.57-.44-.85S30.91,27.59,30.77,27.78Z"/><path class="cls-13" d="M27.62,23.16a1.28,1.28,0,0,0-.83,1.08s0,1,.86.91c0,0,6.12-.79,8.47.73C36.12,25.88,35.84,21.4,27.62,23.16Z"/><path class="cls-12" d="M18.89,28.87a1.71,1.71,0,1,1-1.7-1.7A1.7,1.7,0,0,1,18.89,28.87Z"/><path class="cls-5" d="M17.29,27.78c.14.19-.07.57-.45.85s-.8.34-.94.15.06-.57.45-.85S17.15,27.59,17.29,27.78Z"/><path class="cls-13" d="M20.44,23.16a1.27,1.27,0,0,1,.82,1.08s0,1-.86.91c0,0-6.11-.79-8.47.73C11.93,25.88,12.21,21.4,20.44,23.16Z"/><path class="cls-14" d="M22.77,32.77a5.85,5.85,0,0,1,0,.59,11.7,11.7,0,0,1-.12,1.38,12.2,12.2,0,0,1-.4,1.73c-.05.15-.1.3-.14.46l-.08.22,0,.06v0h0c.06-.19,0,0,0-.09h0s0,0,0,0a3.67,3.67,0,0,0-.1.72,3.12,3.12,0,0,0,0,.56.83.83,0,0,0,.13.36,2.24,2.24,0,0,0,1.13.63c.47.15.93.22,1.26.3s.52.12.52.12a4.73,4.73,0,0,1-1.73,1A3.69,3.69,0,0,1,22.2,41a2.78,2.78,0,0,1-2.54-1.5A3.7,3.7,0,0,1,19.24,38a5.41,5.41,0,0,1,.11-1.4l.06-.2,0-.12h0v0l0-.06.11-.26c.08-.17.17-.33.25-.49a6.43,6.43,0,0,1,1.2-1.57A5.93,5.93,0,0,1,22.23,33,2.66,2.66,0,0,1,22.77,32.77Z"/><path class="cls-15" d="M18.35,43.14a12.58,12.58,0,0,1,1.8-.39A17.61,17.61,0,0,1,22,42.54c.67-.06,1.39-.09,2.11-.09a26.9,26.9,0,0,1,4,.29,13.34,13.34,0,0,1,1.8.4,12.58,12.58,0,0,1-1.8.39,26.9,26.9,0,0,1-4,.29c-.72,0-1.44,0-2.11-.08s-1.31-.13-1.85-.21A14.52,14.52,0,0,1,18.35,43.14Z"/><path class="cls-16" d="M38.39,2.59c2.27.81,6,2.39,6.33,10.43a86.16,86.16,0,0,1-.78,15.87c-1.56-.24-1.94,0-1.94,0l-.41,6.86h-1V28.28c-.1-4.82-3.61-4.84-3.61-4.84a9.44,9.44,0,0,0,0-8C35.54,11.87,16.59,13,16.59,13c-7.24.14-5.37,8.82-5.37,8.82a2.06,2.06,0,0,0-2.08,2A31.67,31.67,0,0,0,9,28.87S4.62,14.43,9.56,7.09C9.56,7.09,16.46-5.21,38.39,2.59Z"/><path class="cls-16" d="M37.82,43.14c2.57-2.57,2.76-7.39,2.76-7.39h1c-.13,2.23-1.26,8-1.26,8-1.55,3.88-11,9-11,9C23,57.25,17.67,52,17.67,52,12,48.4,10,40.54,9.29,34a52.49,52.49,0,0,0,3.86,10.82s4.15,6.22,10.45,6C23.6,50.83,32.58,48.35,37.82,43.14Z"/><path class="cls-5" d="M19.14,43.14h9.51s-.17,3.52-4.76,3.88C23.89,47,19.7,47.26,19.14,43.14Z"/><path class="cls-15" d="M19.25,43.73a3.12,3.12,0,0,0,.24.49,4,4,0,0,0,.83,1,4.24,4.24,0,0,0,.67.48,5.4,5.4,0,0,0,.85.35,7.39,7.39,0,0,0,1,.19c.17,0,.35,0,.52,0l.28,0h.25a7,7,0,0,0,2-.31,4.88,4.88,0,0,0,1.57-.84,4.77,4.77,0,0,0,.89-1,5.38,5.38,0,0,0,.3-.46v.15a1.73,1.73,0,0,1,0,.41A3.44,3.44,0,0,1,28,45.7a4.12,4.12,0,0,1-1.69,1.44,6,6,0,0,1-2.46.57h-.34l-.31,0a4.52,4.52,0,0,1-.63-.08,6,6,0,0,1-1.2-.37l-.54-.29c-.17-.12-.33-.23-.48-.36a3.5,3.5,0,0,1-.69-.82,3.09,3.09,0,0,1-.47-1.45A1.94,1.94,0,0,1,19.25,43.73Z"/><path class="cls-17" d="M20.47,44.81s.43-.11,1.07-.2a18.48,18.48,0,0,1,4.7,0,10.16,10.16,0,0,1,1.07.2s-.42.1-1.07.19a18.48,18.48,0,0,1-4.7,0C20.9,44.91,20.47,44.81,20.47,44.81Z"/><path class="cls-17" d="M22.46,43.73a2.31,2.31,0,0,1,.19.37,2.34,2.34,0,0,1,0,1.65,2.31,2.31,0,0,1-.19.37,1.91,1.91,0,0,1-.2-.37,2.34,2.34,0,0,1,0-1.65A1.91,1.91,0,0,1,22.46,43.73Z"/><path class="cls-17" d="M24.76,43.73a1.91,1.91,0,0,1,.2.37,2.92,2.92,0,0,1,.15.83,2.6,2.6,0,0,1-.15.82,1.91,1.91,0,0,1-.2.37,2.31,2.31,0,0,1-.19-.37,2.34,2.34,0,0,1,0-1.65A2.31,2.31,0,0,1,24.76,43.73Z"/></g></g></g></svg>