<svg xmlns="http://www.w3.org/2000/svg" viewBox="0 0 56.08 77.79"><defs><style>.cls-1{isolation:isolate;}.cls-2{fill:#fbc88c;}.cls-3,.cls-5{fill:#c6c6c6;}.cls-3,.cls-4{mix-blend-mode:multiply;}.cls-6{fill:#ededed;}.cls-7{fill:#afdff9;}.cls-8{fill:#432918;}.cls-9{fill:#163d47;}.cls-10{fill:#d7ad7a;}.cls-11{fill:#502a0c;}.cls-12{fill:#281000;}.cls-13{fill:#fff;}.cls-14{fill:#22515e;}.cls-15{fill:#d6eefd;}</style></defs><g class="cls-1"><g id="Ebene_2" data-name="Ebene 2"><g id="Capa_1" data-name="Capa 1"><rect class="cls-2" x="23.24" y="40.62" width="8.08" height="7.92"/><path class="cls-3" d="M24,46.34c2.21-1.94,5.51-1.42,7.36-3.91V40.62H23.24v6.59A3.56,3.56,0,0,1,24,46.34Z"/><path class="cls-2" d="M39.22,24.74c-.29,2.15.58,4,1.93,4.21s2.67-1.41,3-3.56-.58-4-1.93-4.21S39.5,22.59,39.22,24.74Z"/><g class="cls-4"><path class="cls-5" d="M40.88,24.1a3.15,3.15,0,0,1,0-.32A3.25,3.25,0,0,1,41.2,23c.15-.29.4-.62.74-.65l.26,0,.13.05.1.06a1.28,1.28,0,0,1,.35.46,2.64,2.64,0,0,1,.2.6,3.38,3.38,0,0,1,.05.62c0,.21,0,.43-.07.62s-.06.37-.09.54-.08.32-.1.46-.07.26-.1.36l-.08.31.16-.28a2.5,2.5,0,0,0,.17-.33c.06-.14.13-.28.2-.45s.11-.36.17-.56a5.86,5.86,0,0,0,.12-.63,2,2,0,0,0,0-.73,2.8,2.8,0,0,0-.21-.72,1.59,1.59,0,0,0-.51-.62,1.8,1.8,0,0,0-.2-.11.78.78,0,0,0-.18-.05,1.41,1.41,0,0,0-.41,0,1,1,0,0,0-.63.39,1.86,1.86,0,0,0-.28.54,2.58,2.58,0,0,0-.12.87A1.34,1.34,0,0,0,40.88,24.1Z"/></g><path class="cls-3" d="M40.88,24.1s-.14-.22.74-.29c0,0,1,.12.48,1.2a3.07,3.07,0,0,0-.25.72c-.06.36.12.84-.09,1.16a.67.67,0,0,1-1.14-.27c-.06-.36.35-1,.54-1.24A.84.84,0,0,0,40.88,24.1Z"/><g class="cls-4"><path class="cls-5" d="M40.61,26.58a.13.13,0,0,0-.06.06.53.53,0,0,0-.12.2.54.54,0,0,0,0,.15,1.08,1.08,0,0,0,0,.18l0,.19a1.4,1.4,0,0,0,.09.17.46.46,0,0,0,.11.16l.13.13A.81.81,0,0,0,41,28a1.18,1.18,0,0,0,.3.05,1.54,1.54,0,0,0-.16-.26l-.08-.09a.47.47,0,0,0-.07-.12.41.41,0,0,0-.07-.11.37.37,0,0,1-.07-.12.72.72,0,0,1-.12-.23.61.61,0,0,1-.05-.12s0-.08,0-.12A1.65,1.65,0,0,1,40.61,26.58Z"/></g><path class="cls-2" d="M15.35,24.74c.28,2.15-.58,4-1.93,4.21s-2.68-1.41-3-3.56.58-4,1.93-4.21S15.06,22.59,15.35,24.74Z"/><g class="cls-4"><path class="cls-5" d="M13.69,24.1a3.15,3.15,0,0,0,0-.32,3.78,3.78,0,0,0-.27-.77c-.15-.29-.4-.62-.74-.65l-.26,0-.13.05a.53.53,0,0,0-.1.06,1.09,1.09,0,0,0-.35.46,2.61,2.61,0,0,0-.25,1.22c0,.21,0,.43.06.62s.07.37.09.54.08.32.1.46.08.26.1.36.09.31.09.31-.07-.1-.17-.28-.11-.2-.17-.33l-.19-.45c-.06-.17-.12-.36-.17-.56a4.13,4.13,0,0,1-.13-.63,2.55,2.55,0,0,1,0-.73,2.83,2.83,0,0,1,.22-.72,1.66,1.66,0,0,1,.5-.62l.2-.11.19-.05a1.4,1.4,0,0,1,.41,0,1,1,0,0,1,.63.39,1.86,1.86,0,0,1,.28.54,2.87,2.87,0,0,1,.12.87A1.34,1.34,0,0,1,13.69,24.1Z"/></g><path class="cls-3" d="M13.69,24.1s.14-.22-.74-.29c0,0-1,.12-.48,1.2a3.07,3.07,0,0,1,.25.72c.06.36-.13.84.09,1.16A.67.67,0,0,0,14,26.62c.06-.36-.35-1-.55-1.24A.84.84,0,0,1,13.69,24.1Z"/><g class="cls-4"><path class="cls-5" d="M14,26.58a.18.18,0,0,1,.07.06.53.53,0,0,1,.11.2.33.33,0,0,1,0,.15.55.55,0,0,1,0,.18c0,.06,0,.12,0,.19a1.3,1.3,0,0,1-.08.17,1.11,1.11,0,0,1-.11.16,1.66,1.66,0,0,1-.14.13.77.77,0,0,1-.28.15,1.24,1.24,0,0,1-.3.05,2,2,0,0,1,.15-.26l.08-.09s0-.09.07-.12a1,1,0,0,1,.08-.11s0-.08.07-.12a1.67,1.67,0,0,0,.12-.23,5651441465070,5651441465070,0,0,1,.08-.24A1.65,1.65,0,0,0,14,26.58Z"/></g><path class="cls-2" d="M27.33.43h-.1C24,.62,9.91,2.64,13.28,24.35l.83,9.08a9.7,9.7,0,0,0,3.25,4,42.45,42.45,0,0,0,8,5.29s.8.22,1.87.62v0l.05,0,0,0v0c1.08-.4,1.88-.63,1.88-.63a42.3,42.3,0,0,0,8-5.29c2.52-1.92,2.65-4,2.65-4l1.42-9.09C44.65,2.63,30.56.61,27.33.43Z"/><g class="cls-4"><path class="cls-6" d="M27.25,43.34v0c-.88-.4-1.54-.62-1.54-.62a35.61,35.61,0,0,1-6.56-5.29,9.73,9.73,0,0,1-2.67-4l-.68-9.08C13,2.64,24.59.61,27.24.43h0C24,.62,9.91,2.64,13.28,24.35l.83,9.08a9.7,9.7,0,0,0,3.25,4,42.45,42.45,0,0,0,8,5.29s.8.22,1.87.62v0Z"/><path class="cls-6" d="M27.33.43h0c2.65.18,14.2,2.2,11.44,23.91L37.6,33.43a6.35,6.35,0,0,1-2.17,4,35,35,0,0,1-6.57,5.29s-.65.23-1.53.63v0h0v0c1.08-.4,1.88-.63,1.88-.63a42.3,42.3,0,0,0,8-5.29c2.52-1.92,2.65-4,2.65-4l1.42-9.09C44.65,2.63,30.56.61,27.33.43Z"/></g><path class="cls-2" d="M12.22,77.79H42.34L45.16,58a6.06,6.06,0,0,0-2.38-6.57L31,46.69H23.59l-11.8,4.69A6.06,6.06,0,0,0,9.41,58Z"/><path class="cls-7" d="M9.43,77.79h35.4L45.16,58a6.06,6.06,0,0,0-2.38-6.57L31.31,46.82l-4.08,1.67-4-1.68L11.79,51.38A6.06,6.06,0,0,0,9.41,58Z"/><path class="cls-7" d="M11.79,51.41c2,5.29-1.31,23.38-1.31,23.38L.35,74.85l2.2-15s-.27-4,2.11-5.42Z"/><path class="cls-7" d="M55.51,74.76l-4-16.13s-.26-3.53-3-4.85l-6-2.46c-2,5.15,1.17,22.52,1.33,23.44Z"/><path class="cls-8" d="M40.1,3C38,.24,30.23,0,27.88,0,24.62-.11,18.5.45,14.71,3.33c-4,5.92-2.66,18.19-2.66,18.19l1,2.57.36,2.54h.7s-1.37-8.36,1.31-10.81c0,0,.51-6.35,3.47-7.2a25,25,0,0,1,8.31-.93,43.42,43.42,0,0,1,8.61.53c3.14.51,3.35,7.6,3.35,7.6,2.67,2.45,1.3,10.81,1.3,10.81h.7l.37-2.54,1-2.83S44.55,9.25,40.1,3Z"/><path class="cls-8" d="M27.21,7.69Z"/><path class="cls-9" d="M9.43,77.79H22.2V47.25L11.79,51.38A6.06,6.06,0,0,0,9.41,58Z"/><path class="cls-9" d="M45.13,77.79l0-19.84a6.06,6.06,0,0,0-2.38-6.57L32,47.09v30.7Z"/><path class="cls-9" d="M11.79,51.41c2,5.29-1.31,23.38-1.31,23.38L.35,74.85l2.2-15s-.27-4,2.11-5.42Z"/><polygon class="cls-9" points="9.87 77.79 9.87 74.31 0.44 74.31 0 77.79 9.87 77.79"/><polygon class="cls-9" points="56.08 77.79 55.51 74.49 44.85 74.53 44.85 77.4 44.96 77.79 56.08 77.79"/><path class="cls-9" d="M55.51,74.76l-4-16.13s-.26-3.53-3-4.85l-6-2.46c-2,5.15,1.17,22.52,1.33,23.44Z"/><path class="cls-10" d="M25.17,29.66l.19,0c.12,0,.3,0,.49,0s.43.06.68.06h.79a3.48,3.48,0,0,0,.79,0l.69-.06c.4,0,.68,0,.68,0l.05.24,0,.11c0,.07,0,.2-.08.31a3.3,3.3,0,0,1-.41.82,2.57,2.57,0,0,1-.74.73,2.15,2.15,0,0,1-.46.22,2.08,2.08,0,0,1-1,0,1.86,1.86,0,0,1-.46-.19,2.23,2.23,0,0,1-.79-.74,2.19,2.19,0,0,1-.37-.84,3.22,3.22,0,0,1-.07-.32v-.12Z"/><path class="cls-11" d="M34.22,22.64a1.35,1.35,0,1,1-1.34-1.35A1.34,1.34,0,0,1,34.22,22.64Z"/><path class="cls-12" d="M33.5,22.64a.62.62,0,1,1-.62-.63A.62.62,0,0,1,33.5,22.64Z"/><path class="cls-13" d="M34,22.27a.49.49,0,0,1-1,0,.49.49,0,0,1,1,0Z"/><path class="cls-13" d="M33,21.93a.3.3,0,1,1-.29-.29A.29.29,0,0,1,33,21.93Z"/><path class="cls-8" d="M29.93,17.83s7-1.15,7.58,2.2a11.48,11.48,0,0,0-4.49-.7l-3.35.17S29.31,18.36,29.93,17.83Z"/><path class="cls-11" d="M20.34,22.64a1.35,1.35,0,1,0,1.35-1.35A1.34,1.34,0,0,0,20.34,22.64Z"/><path class="cls-12" d="M21.06,22.64a.63.63,0,1,0,.63-.63A.63.63,0,0,0,21.06,22.64Z"/><path class="cls-13" d="M20.58,22.27a.49.49,0,0,0,1,0,.49.49,0,1,0-1,0Z"/><path class="cls-13" d="M21.57,21.93a.29.29,0,1,0,.29-.29A.29.29,0,0,0,21.57,21.93Z"/><path class="cls-8" d="M24.63,17.83s-7-1.15-7.58,2.2a11.5,11.5,0,0,1,4.5-.7l3.35.17S25.25,18.36,24.63,17.83Z"/><path class="cls-13" d="M31.62,34.21c-4.34.25-5.82,0-8.67.06C23,34.27,26.67,39.44,31.62,34.21Z"/><path class="cls-10" d="M31.15,34.41a11.33,11.33,0,0,1-1.68.39,6.59,6.59,0,0,1-1.09.09,6.79,6.79,0,0,1-1.1,0c-.74-.07-1.44-.32-2.17-.37a9.69,9.69,0,0,0-2.15.15l.28-.58a8.19,8.19,0,0,0,.92.73,7.92,7.92,0,0,0,1,.6,5.13,5.13,0,0,0,1,.36,5.37,5.37,0,0,0,1.06.11,5.29,5.29,0,0,0,2.15-.49,9.89,9.89,0,0,0,1.08-.54C30.71,34.69,30.93,34.55,31.15,34.41Zm.51-.16a6.14,6.14,0,0,1-1.74,2,4.86,4.86,0,0,1-2.63,1,4.7,4.7,0,0,1-2.75-.78,5.71,5.71,0,0,1-1.89-2l-.41-.69.7.11a10,10,0,0,0,2.18.16c.72,0,1.46-.2,2.17-.29a12.75,12.75,0,0,1,2.14,0,10.54,10.54,0,0,1,2.19.36l.09,0Z"/><path class="cls-10" d="M26,37.6a5.27,5.27,0,0,0,2.62,0A1.59,1.59,0,0,1,26,37.6Z"/><polygon class="cls-14" points="16.12 66.66 19.86 77.79 22.2 77.79 22.2 47.24 11.09 51.2 19.42 63.62 16.12 66.66"/><polygon class="cls-14" points="34.27 77.79 38.07 66.51 34.77 63.47 43.1 51.04 31.98 47.09 31.98 77.79 34.27 77.79"/><polygon class="cls-15" points="27.29 48.49 31.32 45.41 36.08 48.71 31.36 54.73 27.29 48.49"/><polygon class="cls-15" points="27.23 48.49 23.19 45.41 18.44 48.71 23.16 54.73 27.23 48.49"/></g></g></g></svg>