<svg xmlns="http://www.w3.org/2000/svg" viewBox="0 0 54.02 77.98"><defs><style>.cls-1{isolation:isolate;}.cls-2{fill:#f6a774;}.cls-16,.cls-3{fill:#dadada;}.cls-11,.cls-3,.cls-7{mix-blend-mode:multiply;}.cls-4{fill:#f8bb94;}.cls-5{fill:#fff;}.cls-6{fill:#00b0b1;}.cls-7{fill:#c6c6c6;}.cls-8{fill:#002838;}.cls-9{fill:#003446;}.cls-10{fill:#cc8a64;}.cls-11{fill:#ededed;}.cls-12{fill:#313130;}.cls-13{fill:#6d4b2a;}.cls-14{fill:#da9668;}.cls-15{fill:#d19064;}.cls-17{fill:#bd7f4b;}.cls-18{fill:#895d36;}</style></defs><g class="cls-1"><g id="Ebene_2" data-name="Ebene 2"><g id="Capa_1" data-name="Capa 1"><rect class="cls-2" x="22.26" y="54.82" width="9.07" height="5.4"/><path class="cls-3" d="M28,59.49c-1.9-.61-3.49-1.8-3.73-3.89a1.83,1.83,0,0,1,.08-.78H22.26v5.39h9.07v-.67A6.17,6.17,0,0,1,28,59.49Z"/><path class="cls-4" d="M54,78c-.14-5.67-1.44-10.17-6.24-11.89-5.5-2-16.2-6.1-16.2-6.1H22.45s-10.71,4.12-16.2,6.1C1.45,67.81.14,72.31,0,78Z"/><path class="cls-5" d="M54,78c-.14-5.67-1.44-10.17-6.24-11.89-5.5-2-16.2-6.1-16.2-6.1H22.45s-10.71,4.12-16.2,6.1C1.45,67.81.14,72.31,0,78Z"/><path class="cls-6" d="M25.11,67.08a.86.86,0,0,1,.13-.16l-.13.16L24.83,78h4.51l-.42-10.9.88-4a2,2,0,0,0,.08-1.91,1.92,1.92,0,0,0-1.19-1A9,9,0,0,0,26.25,60a2,2,0,0,0-1.89.76A1.92,1.92,0,0,0,24.23,63Z"/><path class="cls-7" d="M25,66.45s2.66-1.37,3.94.63a3.88,3.88,0,0,0-3.8,0Z"/><path class="cls-8" d="M54,78c-.14-5.67-1.44-10.17-6.24-11.89-5.5-2-12-4.47-12-4.47L32.36,78Z"/><path class="cls-8" d="M21.93,78l-3.64-16.4s-6.55,2.53-12,4.51C1.45,67.81.14,72.31,0,78Z"/><polygon class="cls-7" points="27.01 59.99 22.65 70.63 18.29 61.58 27.01 59.99"/><path class="cls-5" d="M22.26,59.2a34.24,34.24,0,0,1-4,2.38l4.18,7.17A64.48,64.48,0,0,1,27,60Z"/><polygon class="cls-7" points="26.97 59.99 31.33 70.63 35.69 61.58 26.97 59.99"/><path class="cls-5" d="M31.72,59.2a35.67,35.67,0,0,0,4,2.38l-4.18,7.17A64.48,64.48,0,0,0,27,60Z"/><path class="cls-9" d="M14.6,73.28s3.69.3,2.54,1.51L12,76.57,12.85,78h9.08l-3.64-16.4-7.66,2.9L11,70.63S10.91,74,14.6,73.28Z"/><path class="cls-9" d="M41.23,78l.82-1.41-5.14-1.78c-1.15-1.21,2.55-1.51,2.55-1.51C43.14,74,43,70.63,43,70.63l.38-6.15-7.66-2.9L32.31,78Z"/><path class="cls-2" d="M39.26,37.65c-.18,2.87,1.13,5.29,2.94,5.4s3.41-2.11,3.59-5-1.12-5.29-2.93-5.4S39.45,34.78,39.26,37.65Z"/><path class="cls-10" d="M41.82,36.63a3.13,3.13,0,0,1,0-.43,4,4,0,0,1,.29-1.05c.17-.4.47-.86.92-.93a1.3,1.3,0,0,1,.34,0l.18.06.14.07a1.61,1.61,0,0,1,.51.58,3,3,0,0,1,.31.79,2.88,2.88,0,0,1,.12.8c0,.29,0,.58,0,.83s0,.5-.08.72-.07.44-.09.62a3.61,3.61,0,0,1-.1.48l-.08.43s.08-.14.19-.39.13-.27.2-.45.14-.39.21-.61.12-.49.18-.76.07-.55.11-.84a3.17,3.17,0,0,0-.09-1,3.69,3.69,0,0,0-.35-.94,2.14,2.14,0,0,0-.73-.77,1.11,1.11,0,0,0-.27-.12.92.92,0,0,0-.25-.06,1.63,1.63,0,0,0-.54,0,1.35,1.35,0,0,0-.8.58,2.19,2.19,0,0,0-.33.74,3.54,3.54,0,0,0-.08,1.16A2.11,2.11,0,0,0,41.82,36.63Z"/><path class="cls-10" d="M41.82,36.63s-.2-.29,1-.47c0,0,1.33.09.75,1.56a3.57,3.57,0,0,0-.26,1c0,.49.24,1.11,0,1.55A.9.9,0,0,1,41.7,40a3.08,3.08,0,0,1,.61-1.69A1.11,1.11,0,0,0,41.82,36.63Z"/><path class="cls-10" d="M41.69,39.93s0,0-.08.08a.66.66,0,0,0-.13.28.65.65,0,0,0,0,.2,1,1,0,0,0,0,.24c0,.07,0,.16.06.25a1.59,1.59,0,0,0,.13.22,1.16,1.16,0,0,0,.16.21l.19.14a.8.8,0,0,0,.39.18,1.26,1.26,0,0,0,.41,0,2.14,2.14,0,0,0-.23-.32.74.74,0,0,0-.12-.13,1.3,1.3,0,0,0-.1-.15L42.22,41a.75.75,0,0,1-.09-.15,1.27,1.27,0,0,1-.18-.29,1.09,1.09,0,0,1-.08-.15s0-.1-.06-.15S41.69,39.92,41.69,39.93Z"/><path class="cls-2" d="M9,27.47S7,49,17.52,55.82c0,0,5.27,5.18,11.61.64,0,0,9.4-5.07,11-8.94,0,0,8.11-35-11.59-36.14C28.49,11.38,11.66,7.49,9,27.47Z"/><path class="cls-11" d="M28.49,11.38a15.87,15.87,0,0,0-3.32-.3,15.47,15.47,0,0,1,7.95,7.79,43.85,43.85,0,0,1,4.56,16.78A20.14,20.14,0,0,1,27.54,54.31c-2.8,1.5-6.29,2.92-9.5,1.95a8.88,8.88,0,0,0,11.09.2s9.4-5.07,11-8.94C40.08,47.52,48.19,12.52,28.49,11.38Z"/><path class="cls-12" d="M29,32.76a1.7,1.7,0,1,0,1.69-1.7A1.7,1.7,0,0,0,29,32.76Z"/><path class="cls-5" d="M30.55,31.67c-.13.2.07.57.45.84s.8.35.93.16-.06-.57-.44-.85S30.69,31.48,30.55,31.67Z"/><path class="cls-13" d="M27.42,27.07a1.29,1.29,0,0,0-.82,1.08s0,1,.86.9c0,0,6.08-.78,8.43.73C35.89,29.78,35.6,25.32,27.42,27.07Z"/><path class="cls-12" d="M18.74,32.76a1.7,1.7,0,1,1-1.7-1.7A1.7,1.7,0,0,1,18.74,32.76Z"/><path class="cls-5" d="M17.14,31.67c.14.2-.06.57-.45.84s-.8.35-.93.16.06-.57.44-.85S17,31.48,17.14,31.67Z"/><path class="cls-13" d="M20.27,27.07a1.29,1.29,0,0,1,.82,1.08s0,1-.86.9c0,0-6.08-.78-8.43.73C11.8,29.78,12.09,25.32,20.27,27.07Z"/><path class="cls-14" d="M22.6,36.65a4.46,4.46,0,0,1,0,.58,9.89,9.89,0,0,1-.12,1.38,11.39,11.39,0,0,1-.4,1.72c0,.15-.09.3-.13.45l-.09.23,0,.05v0h0c.06-.19,0-.05,0-.09h0s0,0,0,0a3.57,3.57,0,0,0-.1.72,3,3,0,0,0,0,.55.83.83,0,0,0,.13.36,2.09,2.09,0,0,0,1.12.62,10.4,10.4,0,0,0,1.25.3l.53.12a4.65,4.65,0,0,1-.43.34,5.21,5.21,0,0,1-1.3.64,4,4,0,0,1-1.05.16,2.94,2.94,0,0,1-1.34-.32,2.82,2.82,0,0,1-1.19-1.18,3.64,3.64,0,0,1-.41-1.51,4.66,4.66,0,0,1,.11-1.4l0-.2,0-.12h0v0l0-.07.11-.25.24-.5a6.49,6.49,0,0,1,1.2-1.55,5.2,5.2,0,0,1,1.17-.86A2.83,2.83,0,0,1,22.6,36.65Z"/><path class="cls-5" d="M19,47h9.47s-.16,3.5-4.73,3.86C23.71,50.82,19.54,51.06,19,47Z"/><path class="cls-15" d="M18.19,47a12.58,12.58,0,0,1,1.8-.39c.53-.09,1.16-.16,1.83-.21s1.39-.08,2.11-.08a25.19,25.19,0,0,1,3.94.29,12.58,12.58,0,0,1,1.8.39,12.58,12.58,0,0,1-1.8.39,26.47,26.47,0,0,1-3.94.29c-.72,0-1.43,0-2.11-.08s-1.3-.12-1.83-.21A12.58,12.58,0,0,1,18.19,47Z"/><path class="cls-15" d="M19.09,47.55a3.12,3.12,0,0,0,.24.49,4,4,0,0,0,.82,1,4.24,4.24,0,0,0,.67.48,5.4,5.4,0,0,0,.85.35,6.94,6.94,0,0,0,1,.19c.17,0,.35,0,.52,0l.28,0h.24a7,7,0,0,0,2-.31A4.5,4.5,0,0,0,27.25,49a4.56,4.56,0,0,0,.9-1c.19-.28.29-.46.29-.46v.15c0,.09,0,.23,0,.41a3.49,3.49,0,0,1-.56,1.41,4.08,4.08,0,0,1-1.69,1.42,5.72,5.72,0,0,1-2.44.57c-.12,0-.22,0-.34,0l-.31,0a4.52,4.52,0,0,1-.63-.08,6.21,6.21,0,0,1-1.2-.38,4.49,4.49,0,0,1-.53-.29c-.17-.12-.33-.23-.47-.35a3.42,3.42,0,0,1-.69-.81,3.24,3.24,0,0,1-.48-1.46A2.07,2.07,0,0,1,19.09,47.55Z"/><path class="cls-16" d="M20.3,48.62s.43-.11,1.07-.2a19.63,19.63,0,0,1,4.68,0c.64.09,1.07.2,1.07.2s-.43.1-1.07.19a18.33,18.33,0,0,1-4.68,0C20.73,48.72,20.3,48.62,20.3,48.62Z"/><path class="cls-16" d="M22.28,47.55a2.21,2.21,0,0,1,0,2.38,1.91,1.91,0,0,1-.2-.37,2.47,2.47,0,0,1,0-1.64A1.91,1.91,0,0,1,22.28,47.55Z"/><path class="cls-16" d="M24.58,47.55a2.31,2.31,0,0,1,.19.37,2.32,2.32,0,0,1,0,1.64,2.31,2.31,0,0,1-.19.37,1.91,1.91,0,0,1-.2-.37,2.47,2.47,0,0,1,0-1.64A1.91,1.91,0,0,1,24.58,47.55Z"/><path class="cls-17" d="M44.44,17a86,86,0,0,1-.77,15.79c-1.56-.24-1.93,0-1.93,0l-.41,6.83h-1V32.17c-.1-4.8-3.58-4.82-3.58-4.82a9.41,9.41,0,0,0,0-8C35.31,15.84,16.45,17,16.45,17c-7.21.14-5.35,8.78-5.35,8.78a2.05,2.05,0,0,0-2.07,2,31.46,31.46,0,0,0-.16,5s-4.34-14.38.57-21.68c0,0-1.61-4.16-4.91-.81,0,0,5.84-12.25,25.14-10,0,0,10.74,1.89,9.58,7.73C39.25,8,44.14,9,44.44,17Z"/><path class="cls-15" d="M22.1,51.72a4.06,4.06,0,0,1,.5-.25,2.12,2.12,0,0,1,.85-.2,3.15,3.15,0,0,1,.43,0c.14,0,.29.1.42.14a3.06,3.06,0,0,1,.5.28,1.39,1.39,0,0,1-.33.49,1.29,1.29,0,0,1-.45.29,1.41,1.41,0,0,1-.57.11,1.62,1.62,0,0,1-.58-.11,1.48,1.48,0,0,1-.45-.3A1.21,1.21,0,0,1,22.1,51.72Z"/><path class="cls-17" d="M23.45,45.68S23.05,44,20.27,44c0,0-1.88-.1-3.55,2.32A1.71,1.71,0,0,1,15,47a4.46,4.46,0,0,0,5.32-.62A3.73,3.73,0,0,1,23.45,45.68Z"/><path class="cls-17" d="M23.45,45.68S23.84,44,26.63,44c0,0,1.88-.1,3.54,2.32A1.73,1.73,0,0,0,32,47a4.46,4.46,0,0,1-5.32-.62A3.73,3.73,0,0,0,23.45,45.68Z"/><path class="cls-18" d="M39.25,8A16.47,16.47,0,0,1,38,9.71c-.39.49-.86,1-1.39,1.6S35.52,12.47,34.92,13a34.39,34.39,0,0,1-3.49,2.9,17,17,0,0,1-1.76,1.13,15.88,15.88,0,0,1,1.22-1.7A36,36,0,0,1,34,12c.6-.57,1.22-1.11,1.81-1.6S37,9.5,37.48,9.14A16.45,16.45,0,0,1,39.25,8Z"/></g></g></g></svg>