<svg xmlns="http://www.w3.org/2000/svg" viewBox="0 0 55.58 78.56"><defs><style>.cls-1{isolation:isolate;}.cls-2{fill:#fbc88c;}.cls-3,.cls-5{fill:#c6c6c6;}.cls-3,.cls-4{mix-blend-mode:multiply;}.cls-6{fill:#ededed;}.cls-7{fill:#fff;}.cls-8{fill:#afdff9;}.cls-9{fill:#b7793e;}.cls-10{fill:#432918;}.cls-11{fill:#163d47;}.cls-12{fill:#22515e;}.cls-13{fill:#8a2a2d;}.cls-14{fill:#6d2021;}.cls-15{fill:#d6eefd;}.cls-16{fill:#d7ad7a;}.cls-17{fill:#502a0c;}.cls-18{fill:#281000;}</style></defs><g class="cls-1"><g id="Ebene_2" data-name="Ebene 2"><g id="Capa_1" data-name="Capa 1"><rect class="cls-2" x="23.03" y="44.62" width="8.16" height="8"/><path class="cls-3" d="M23.75,50.4C26,48.45,29.32,49,31.19,46.46V44.62H23v6.66A3.6,3.6,0,0,1,23.75,50.4Z"/><path class="cls-2" d="M39.16,28.59c-.28,2.17.59,4.07,2,4.25s2.7-1.42,3-3.59-.58-4.08-2-4.26S39.45,26.42,39.16,28.59Z"/><g class="cls-4"><path class="cls-5" d="M40.84,28a3.06,3.06,0,0,1,0-.33,3.83,3.83,0,0,1,.27-.78c.15-.29.41-.63.75-.65a.78.78,0,0,1,.26,0,.75.75,0,0,1,.13.06.33.33,0,0,1,.1.06,1.11,1.11,0,0,1,.36.46,2.57,2.57,0,0,1,.2.61A2.22,2.22,0,0,1,43,28c0,.22,0,.44-.06.63s-.07.38-.1.55-.07.32-.1.46-.07.26-.1.36l-.08.32.16-.29c.05-.09.12-.2.18-.33s.12-.29.19-.45.11-.37.18-.57a5.86,5.86,0,0,0,.12-.63,2.62,2.62,0,0,0,0-.74,2.78,2.78,0,0,0-.22-.73,1.59,1.59,0,0,0-.51-.62,1,1,0,0,0-.2-.11l-.19-.06a1.41,1.41,0,0,0-.41,0,1,1,0,0,0-.64.4,1.86,1.86,0,0,0-.28.54,2.69,2.69,0,0,0-.13.88A1.87,1.87,0,0,0,40.84,28Z"/></g><path class="cls-3" d="M40.84,28s-.14-.23.74-.31c0,0,1,.14.49,1.22a3.15,3.15,0,0,0-.25.73c-.06.36.13.85-.09,1.17a.69.69,0,0,1-1.16-.27,2.44,2.44,0,0,1,.55-1.25A.85.85,0,0,0,40.84,28Z"/><g class="cls-4"><path class="cls-5" d="M40.57,30.45a.18.18,0,0,0-.07.06.53.53,0,0,0-.11.2.66.66,0,0,0,0,.15.37.37,0,0,0,0,.18l0,.19c0,.07.06.12.08.18a.67.67,0,0,0,.12.16.86.86,0,0,0,.14.13.55.55,0,0,0,.28.15.83.83,0,0,0,.3,0,1.48,1.48,0,0,0-.15-.26l-.08-.1s0-.08-.07-.11l-.08-.12s0-.08-.07-.11a1.34,1.34,0,0,1-.12-.24l0-.12s0-.08,0-.11Z"/></g><path class="cls-2" d="M15.05,28.59c.29,2.17-.58,4.07-1.94,4.25s-2.71-1.42-3-3.59.58-4.08,2-4.26S14.77,26.42,15.05,28.59Z"/><g class="cls-4"><path class="cls-5" d="M13.38,28a3.06,3.06,0,0,0-.05-.33,3.41,3.41,0,0,0-.28-.78c-.15-.29-.4-.63-.74-.65a.78.78,0,0,0-.26,0l-.14.06-.1.06a1.17,1.17,0,0,0-.35.46,2.18,2.18,0,0,0-.2.61,2.22,2.22,0,0,0,0,.62c0,.22,0,.44.06.63s.07.38.09.55.08.32.11.46.07.26.09.36.09.32.09.32l-.16-.29c-.05-.09-.12-.2-.18-.33s-.12-.29-.19-.45-.12-.37-.18-.57a5.86,5.86,0,0,1-.12-.63,2.3,2.3,0,0,1,0-.74,2.78,2.78,0,0,1,.22-.73,1.59,1.59,0,0,1,.51-.62,1,1,0,0,1,.2-.11l.19-.06a1.4,1.4,0,0,1,.41,0,1,1,0,0,1,.63.4,1.91,1.91,0,0,1,.29.54,2.92,2.92,0,0,1,.12.88A1.5,1.5,0,0,1,13.38,28Z"/></g><path class="cls-3" d="M13.38,28s.14-.23-.74-.31c0,0-1,.14-.49,1.22a3.15,3.15,0,0,1,.25.73c.06.36-.13.85.09,1.17a.68.68,0,0,0,1.15-.27c.07-.36-.35-1-.55-1.25A.84.84,0,0,1,13.38,28Z"/><g class="cls-4"><path class="cls-5" d="M13.65,30.45a.13.13,0,0,1,.06.06.53.53,0,0,1,.12.2.66.66,0,0,1,0,.15.54.54,0,0,1,0,.18l0,.19a1,1,0,0,1-.09.18.46.46,0,0,1-.11.16,1.66,1.66,0,0,1-.14.13.64.64,0,0,1-.28.15.87.87,0,0,1-.31,0,2.17,2.17,0,0,1,.16-.26l.08-.1s0-.08.07-.11l.08-.12s0-.08.07-.11.08-.16.12-.24l0-.12a.36.36,0,0,1,0-.11Z"/></g><path class="cls-2" d="M27.15,4h-.09C23.79,4.23,9.56,6.26,13,28.19l.83,9.18a9.76,9.76,0,0,0,3.29,4,42.47,42.47,0,0,0,8.09,5.34s.8.24,1.89.63v0l0,0,.05,0v0c1.09-.39,1.89-.63,1.89-.63a42.84,42.84,0,0,0,8.09-5.34c2.56-1.94,2.68-4,2.68-4l1.43-9.18C44.65,6.26,30.41,4.22,27.15,4Z"/><g class="cls-4"><path class="cls-6" d="M27.08,47.37v0c-.9-.39-1.56-.63-1.56-.63a35.81,35.81,0,0,1-6.63-5.34,9.85,9.85,0,0,1-2.69-4l-.69-9.18C12.72,6.26,24.39,4.22,27.06,4h0C23.79,4.23,9.56,6.26,13,28.19l.83,9.18a9.76,9.76,0,0,0,3.29,4,42.47,42.47,0,0,0,8.09,5.34s.8.24,1.89.63v0Z"/><path class="cls-6" d="M27.15,4h0c2.68.18,14.35,2.22,11.57,24.15l-1.18,9.18a6.4,6.4,0,0,1-2.2,4,35.6,35.6,0,0,1-6.62,5.34s-.67.24-1.56.63v0h0v0c1.09-.39,1.89-.63,1.89-.63a42.84,42.84,0,0,0,8.09-5.34c2.56-1.94,2.68-4,2.68-4l1.43-9.18C44.65,6.26,30.41,4.22,27.15,4Z"/></g><path class="cls-2" d="M11.39,78.56H42.83l2.33-16.43a6.11,6.11,0,0,0-2.4-6.63L30.84,50.76H23.38L11.46,55.5a6.12,6.12,0,0,0-2.41,6.63Z"/><path class="cls-7" d="M9.7,78.56H44.47l.69-16.43a6.11,6.11,0,0,0-2.4-6.63L31.18,50.89l-4.13,1.69-4-1.7L11.46,55.5a6.12,6.12,0,0,0-2.41,6.63Z"/><path class="cls-8" d="M0,78.56H10.24c.55-3.12,3.06-18.25,1.23-23L4.26,58.58c-2.4,1.47-2.13,5.47-2.13,5.47Z"/><path class="cls-8" d="M55.49,78.56,51.62,62.82s-.27-3.56-3-4.9l-6.07-2.48c-1.83,4.77.7,20,1.25,23.12Z"/><path class="cls-9" d="M40.05,6.66c4.5,6.29,2.47,18.41,2.47,18.41l-1,2.86-.36,2.56h-.71s1.38-8.44-1.32-10.91c0,0-.21-7.16-3.38-7.68A44.28,44.28,0,0,0,27,11.37a25.34,25.34,0,0,0-8.4.94c-3,.85-3.51,7.27-3.51,7.27-2.7,2.47-1.31,10.91-1.31,10.91h-.71l-.37-2.56-1-2.59S10.34,13,14.41,7c0,0,3.15-8.3,17.59-6.79,0,0-2.06.69-2.34,2.2,0,0,3.16-4.12,10.73-.41,0,0-3.44-.14-4.13,1.24,0,0,4.81-1.51,7.43,1.51C43.69,4.72,39.3,4.47,40.05,6.66Z"/><path class="cls-10" d="M27,11.37Z"/><path class="cls-11" d="M9.07,78.56H22V51.32L11.46,55.5a6.12,6.12,0,0,0-2.41,6.63Z"/><path class="cls-11" d="M45.14,78.56l0-16.43a6.11,6.11,0,0,0-2.4-6.63l-10.9-4.33V78.56Z"/><path class="cls-11" d="M0,78.56H10.24c.55-3.12,3.06-18.25,1.23-23L4.26,58.58c-2.4,1.47-2.13,5.47-2.13,5.47Z"/><path class="cls-11" d="M55.58,78.56,54.5,64.29s-.42-4.13-3.17-5.46l-8.81-3.39c-1.83,4.77.7,20,1.25,23.12Z"/><polygon class="cls-12" points="15.83 70.93 18.4 78.56 21.98 78.56 21.98 51.32 10.76 55.31 19.17 67.86 15.83 70.93"/><polygon class="cls-12" points="35.38 78.56 38 70.78 34.67 67.7 43.08 55.16 31.86 51.17 31.86 78.56 35.38 78.56"/><polygon class="cls-13" points="29.75 78.56 28.68 57.93 25.51 57.93 24.45 78.56 29.75 78.56"/><polygon class="cls-14" points="23.64 52.85 30.58 52.85 28.71 57.93 25.51 57.93 23.64 52.85"/><polygon class="cls-15" points="27.12 52.58 31.19 49.47 36 52.8 31.22 58.88 27.12 52.58"/><polygon class="cls-15" points="27.05 52.58 22.98 49.47 18.17 52.8 22.95 58.88 27.05 52.58"/><path class="cls-9" d="M40.48,30.39c-.06.09-.24,1.17-.3,1.26l-.69,3.06a6.08,6.08,0,0,1-2.61,4A41.47,41.47,0,0,1,29,44.05s-.78.24-1.84.63v0l-.05,0,0,0v0c-1.06-.39-1.84-.62-1.84-.62a42,42,0,0,1-7.88-5.34,9.79,9.79,0,0,1-3.2-4l-.43-4.33H13.1l.7,7a9.76,9.76,0,0,0,3.29,4,42.47,42.47,0,0,0,8.09,5.34s.8.24,1.89.63v0l0,0,.05,0v0c1.09-.39,1.89-.63,1.89-.63a42.84,42.84,0,0,0,8.09-5.34c2.56-1.94,2.68-4,2.68-4l1.33-7Z"/><path class="cls-16" d="M25,33.56l.19,0c.12,0,.29,0,.49,0s.44.06.69.06h.8a3.06,3.06,0,0,0,.8,0l.69-.06c.41,0,.69,0,.69,0l.05.23,0,.11a2,2,0,0,1-.09.31,3,3,0,0,1-.41.82,2.61,2.61,0,0,1-.75.73,1.62,1.62,0,0,1-.46.22,2.73,2.73,0,0,1-.5,0,2.08,2.08,0,0,1-.5-.07,2.11,2.11,0,0,1-.47-.19,2.32,2.32,0,0,1-.79-.74,2.22,2.22,0,0,1-.38-.84c0-.11,0-.25-.06-.32a1.13,1.13,0,0,0,0-.12Z"/><path class="cls-17" d="M34.12,26.46a1.36,1.36,0,1,1-1.36-1.35A1.36,1.36,0,0,1,34.12,26.46Z"/><path class="cls-18" d="M33.39,26.46a.63.63,0,1,1-.63-.62A.63.63,0,0,1,33.39,26.46Z"/><path class="cls-7" d="M33.88,26.09a.5.5,0,1,1-.49-.49A.49.49,0,0,1,33.88,26.09Z"/><path class="cls-7" d="M32.88,25.75a.3.3,0,1,1-.29-.29A.29.29,0,0,1,32.88,25.75Z"/><path class="cls-9" d="M29.78,21.61s7-1.16,7.66,2.22a11.6,11.6,0,0,0-4.54-.71l-3.38.18S29.16,22.14,29.78,21.61Z"/><path class="cls-17" d="M20.1,26.46a1.36,1.36,0,1,0,1.36-1.35A1.36,1.36,0,0,0,20.1,26.46Z"/><path class="cls-18" d="M20.83,26.46a.63.63,0,1,0,.63-.62A.63.63,0,0,0,20.83,26.46Z"/><path class="cls-7" d="M20.34,26.09a.49.49,0,1,0,.49-.49A.49.49,0,0,0,20.34,26.09Z"/><path class="cls-7" d="M21.34,25.75a.29.29,0,0,0,.29.3.3.3,0,1,0,0-.59A.29.29,0,0,0,21.34,25.75Z"/><path class="cls-9" d="M24.43,21.61s-7-1.16-7.65,2.22a11.6,11.6,0,0,1,4.54-.71l3.38.18S25.05,22.14,24.43,21.61Z"/><path class="cls-7" d="M31.49,38.15c-4.38.26-5.88,0-8.76.06C22.73,38.21,26.49,43.44,31.49,38.15Z"/><path class="cls-16" d="M31.49,38.22l-2.18.21c-.73.09-1.47.11-2.2.15s-1.47,0-2.2.06l-2.17.1.42-.83a4.8,4.8,0,0,0,.39.4,5.18,5.18,0,0,0,1.42,1,4.38,4.38,0,0,0,1,.4,4.76,4.76,0,0,0,1.07.15,5.19,5.19,0,0,0,2.2-.49,10.31,10.31,0,0,0,1.09-.57c.36-.21.7-.46,1.07-.69Zm0,0a9.6,9.6,0,0,1-.78,1.06,7.14,7.14,0,0,1-1,.9,5,5,0,0,1-2.63,1A4.28,4.28,0,0,1,25.65,41a5.2,5.2,0,0,1-1.32-.58,6.63,6.63,0,0,1-1.1-.86c-.17-.16-.33-.33-.48-.5a6.86,6.86,0,0,1-.45-.56l0,0a.5.5,0,0,1,.13-.7.44.44,0,0,1,.31-.09l2.21.1c.73.05,1.46.11,2.18.14s1.45.11,2.18.11l2.19,0a.08.08,0,0,1,.07.07v0Z"/><path class="cls-16" d="M25.78,41.57a5.2,5.2,0,0,0,2.65,0A1.61,1.61,0,0,1,25.78,41.57Z"/><path class="cls-9" d="M26.91,36.7s-4.12-2.55-7.15.75l-1.65,2.27,2.13,2s2.06-5.43,6.12-3.78l.52.11Z"/><path class="cls-9" d="M26.84,36.7s4-2.62,7.15.75l1.65,2.27-2.13,2s-2.06-5.43-6.12-3.78l-.51.11Z"/><polygon class="cls-11" points="55.55 78.56 55.51 78.16 44.51 78.16 44.51 78.56 55.55 78.56"/><polygon class="cls-11" points="9.51 78.56 9.51 76.92 0.29 76.95 0.05 78.56 9.51 78.56"/></g></g></g></svg>