<svg xmlns="http://www.w3.org/2000/svg" viewBox="0 0 53.16 80.09"><defs><style>.cls-1{isolation:isolate;}.cls-2{fill:#f6a774;}.cls-17,.cls-3{fill:#dadada;}.cls-11,.cls-3,.cls-7{mix-blend-mode:multiply;}.cls-4{fill:#f8bb94;}.cls-5{fill:#fff;}.cls-6{fill:#00b0b1;}.cls-7{fill:#c6c6c6;}.cls-8{fill:#002838;}.cls-9{fill:#003446;}.cls-10{fill:#cc8a64;}.cls-11{fill:#ededed;}.cls-12{fill:#313130;}.cls-13{fill:#804912;}.cls-14{fill:#da9668;}.cls-15{fill:#d19064;}.cls-16{fill:#d57726;}</style></defs><g class="cls-1"><g id="Ebene_2" data-name="Ebene 2"><g id="Capa_1" data-name="Capa 1"><rect class="cls-2" x="21.91" y="57.3" width="8.93" height="5.31"/><path class="cls-3" d="M27.56,61.9c-1.87-.6-3.44-1.77-3.68-3.83A1.76,1.76,0,0,1,24,57.3H21.91v5.31h8.92v-.67A6,6,0,0,1,27.56,61.9Z"/><path class="cls-4" d="M53.16,80.09c-.13-5.58-1.42-10-6.15-11.7-5.4-1.94-15.93-6-15.93-6h-9s-10.54,4.07-15.94,6c-4.73,1.7-6,6.12-6.15,11.7Z"/><path class="cls-5" d="M53.16,80.09c-.13-5.58-1.42-10-6.15-11.7-5.4-1.94-15.93-6-15.93-6h-9s-10.54,4.07-15.94,6c-4.73,1.7-6,6.12-6.15,11.7Z"/><path class="cls-6" d="M24.71,69.36a1.12,1.12,0,0,1,.13-.15l-.13.15-.27,10.73h4.43l-.42-10.73.88-4a1.92,1.92,0,0,0-1.1-2.86,8.7,8.7,0,0,0-2.4-.09,2,2,0,0,0-1.85.76,1.88,1.88,0,0,0-.14,2.19Z"/><path class="cls-7" d="M24.57,68.74s2.62-1.34,3.87.62a3.82,3.82,0,0,0-3.74,0Z"/><path class="cls-8" d="M53.16,80.09c-.13-5.58-1.42-10-6.15-11.7C41.61,66.45,35.26,64,35.26,64l-3.41,16.1Z"/><path class="cls-8" d="M21.58,80.09,18,64s-6.45,2.49-11.85,4.43c-4.73,1.7-6,6.12-6.15,11.7Z"/><polygon class="cls-7" points="26.58 62.38 22.29 72.86 18 63.95 26.58 62.38"/><path class="cls-5" d="M21.91,61.61A35.9,35.9,0,0,1,18,64l4.11,7a64.93,64.93,0,0,1,4.47-8.62Z"/><polygon class="cls-7" points="26.54 62.38 30.83 72.86 35.12 63.95 26.54 62.38"/><path class="cls-5" d="M31.22,61.61A34.59,34.59,0,0,0,35.12,64L31,71a63.66,63.66,0,0,0-4.47-8.62Z"/><path class="cls-9" d="M14.36,75.47s3.64.29,2.5,1.48l-5,1.76.83,1.38h8.94L18,64l-7.54,2.85.37,6S10.73,76.19,14.36,75.47Z"/><path class="cls-9" d="M40.58,80.09l.8-1.38L36.33,77c-1.14-1.19,2.5-1.48,2.5-1.48,3.63.72,3.53-2.61,3.53-2.61l.37-6L35.19,64,31.8,80.09Z"/><path class="cls-2" d="M38.82,40.34c-.19,2.83,1.11,5.22,2.89,5.34s3.37-2.09,3.55-4.92-1.11-5.22-2.89-5.33S39,37.51,38.82,40.34Z"/><path class="cls-10" d="M41.34,39.33a2.87,2.87,0,0,1,0-.41,4.18,4.18,0,0,1,.28-1c.17-.39.47-.85.91-.91a1.29,1.29,0,0,1,.34,0l.18.06.13.07a1.58,1.58,0,0,1,.51.57,4.27,4.27,0,0,1,.31.77,3.34,3.34,0,0,1,.11.8c0,.29,0,.58,0,.82s-.05.49-.08.71-.06.43-.09.62-.07.34-.09.47-.08.42-.08.42L44,41.9a4.19,4.19,0,0,0,.2-.46c.06-.17.14-.37.21-.6s.12-.48.18-.74a7.53,7.53,0,0,0,.1-.83,3.1,3.1,0,0,0-.08-1,4,4,0,0,0-.35-.92,2.29,2.29,0,0,0-.72-.77l-.27-.12a1.68,1.68,0,0,0-.78,0,1.34,1.34,0,0,0-.79.57,2.2,2.2,0,0,0-.32.73,3.42,3.42,0,0,0-.08,1.14A1.75,1.75,0,0,0,41.34,39.33Z"/><path class="cls-10" d="M41.34,39.33s-.2-.28.94-.45c0,0,1.3.08.73,1.53a4,4,0,0,0-.26,1c0,.47.24,1.08,0,1.52a.89.89,0,0,1-1.52-.25c-.11-.46.38-1.31.6-1.67A1.1,1.1,0,0,0,41.34,39.33Z"/><path class="cls-10" d="M41.21,42.59l-.08.08A.92.92,0,0,0,41,43a.65.65,0,0,0,0,.2.89.89,0,0,0,0,.23,2.33,2.33,0,0,0,.07.25.94.94,0,0,0,.12.22.78.78,0,0,0,.16.2c.06.06.13.1.19.15a.76.76,0,0,0,.38.17,1.19,1.19,0,0,0,.4,0,2.57,2.57,0,0,0-.22-.32L42,44l-.1-.15s-.07-.1-.11-.14a.61.61,0,0,1-.1-.14,1.83,1.83,0,0,1-.18-.3l-.07-.14c0-.05,0-.11-.06-.15C41.26,42.76,41.21,42.59,41.21,42.59Z"/><path class="cls-2" d="M9,30.3s-2,21.28,8.39,28c0,0,5.2,5.11,11.45.63,0,0,9.28-5,10.81-8.82,0,0,8-34.55-11.44-35.67C28.18,14.42,11.58,10.58,9,30.3Z"/><path class="cls-11" d="M28.18,14.42a16.26,16.26,0,0,0-3.27-.3,15.35,15.35,0,0,1,7.85,7.69,43.47,43.47,0,0,1,4.5,16.56,19.92,19.92,0,0,1-10,18.42c-2.76,1.48-6.21,2.88-9.38,1.92a8.75,8.75,0,0,0,10.94.2s9.28-5,10.81-8.82C39.62,50.09,47.62,15.54,28.18,14.42Z"/><path class="cls-12" d="M28.64,35.52a1.68,1.68,0,1,0,1.68-1.68A1.68,1.68,0,0,0,28.64,35.52Z"/><path class="cls-5" d="M30.22,34.45c-.13.19.06.56.43.83s.79.34.93.15-.06-.56-.43-.83S30.35,34.26,30.22,34.45Z"/><path class="cls-13" d="M27.12,29.91a1.24,1.24,0,0,0-.8,1.06s0,1,.84.89c0,0,6-.77,8.32.72C35.48,32.58,35.2,28.17,27.12,29.91Z"/><path class="cls-12" d="M18.56,35.52a1.68,1.68,0,1,1-1.68-1.68A1.68,1.68,0,0,1,18.56,35.52Z"/><path class="cls-5" d="M17,34.45c.13.19-.06.56-.44.83s-.79.34-.92.15.06-.56.43-.83S16.84,34.26,17,34.45Z"/><path class="cls-13" d="M20.08,29.91a1.26,1.26,0,0,1,.8,1.06s0,1-.84.89c0,0-6-.77-8.33.72C11.71,32.58,12,28.17,20.08,29.91Z"/><path class="cls-14" d="M22.37,39.36a5.44,5.44,0,0,1,0,.57,11.12,11.12,0,0,1-.11,1.37,12.07,12.07,0,0,1-.39,1.7c0,.14-.09.29-.14.44l-.08.23,0,0v0h0s.06-.19,0-.09h0s0,0,0,0a4.22,4.22,0,0,0-.1.7,2.93,2.93,0,0,0,0,.54,1,1,0,0,0,.12.35,2.19,2.19,0,0,0,1.09.62c.47.15.92.22,1.24.3s.52.12.52.12-.15.13-.43.34a4.58,4.58,0,0,1-1.28.63,3.55,3.55,0,0,1-1,.16A2.75,2.75,0,0,1,19.29,46a3.62,3.62,0,0,1-.42-1.5A5.33,5.33,0,0,1,19,43.12l.05-.19,0-.12v-.05l0-.06.11-.26.24-.48a6.15,6.15,0,0,1,1.19-1.53,4.82,4.82,0,0,1,1.17-.84A2.08,2.08,0,0,1,22.37,39.36Z"/><path class="cls-15" d="M18,49.53a12.28,12.28,0,0,1,1.77-.39c.53-.09,1.15-.16,1.81-.21s1.37-.08,2.08-.08a25.76,25.76,0,0,1,3.89.29,12.28,12.28,0,0,1,1.77.39,13,13,0,0,1-1.77.4,25.76,25.76,0,0,1-3.89.29c-.71,0-1.42,0-2.08-.09a17.09,17.09,0,0,1-1.81-.21A12.28,12.28,0,0,1,18,49.53Z"/><path class="cls-16" d="M38.79,11.1s4.84,1,5.13,8.85a84.19,84.19,0,0,1-.76,15.58c-1.53-.23-1.91,0-1.91,0l-.39,6.75h-1V34.94c-.1-4.74-3.54-4.75-3.54-4.75a9.33,9.33,0,0,0,0-7.88c-1.44-3.49-20-2.37-20-2.37C9.18,20.08,11,28.61,11,28.61a2,2,0,0,0-2,1.93,31.89,31.89,0,0,0-.15,5s-4.28-14.19.57-21.4c0,0,5.15-6.7-.27-9.12,0,0,5.42-2.42,7.9,2.79,0,0,5.17-1.95,1.89-7.34,0,0,9.73-.28,9.44,7,0,0,4.43-1.84,2-7.42C30.32,0,41.2,3.14,38.79,11.1Z"/><path class="cls-16" d="M37.15,49.53c2.53-2.52,2.71-7.25,2.71-7.25h1c-.13,2.18-1.24,7.81-1.24,7.81-1.53,3.82-10.81,8.82-10.81,8.82-6.25,4.48-11.45-.63-11.45-.63C11.8,54.7,9.79,47,9.12,40.55a51.23,51.23,0,0,0,3.8,10.62S17,57.28,23.18,57.09C23.18,57.09,32,54.65,37.15,49.53Z"/><path class="cls-5" d="M18.79,49.53h9.35S28,53,23.46,53.35C23.46,53.35,19.35,53.58,18.79,49.53Z"/><path class="cls-15" d="M18.91,50.12a3.9,3.9,0,0,0,.23.48,4,4,0,0,0,.82,1,3.56,3.56,0,0,0,.66.47,5.55,5.55,0,0,0,.83.34,7.41,7.41,0,0,0,1,.19c.17,0,.35,0,.52,0l.27,0h.24a6.85,6.85,0,0,0,2-.31A4.46,4.46,0,0,0,27,51.54a4.63,4.63,0,0,0,.88-1c.2-.28.3-.45.3-.45v.14a2.35,2.35,0,0,1,0,.41,3.53,3.53,0,0,1-.55,1.39,4.06,4.06,0,0,1-1.67,1.41,6,6,0,0,1-2.42.57h-.34l-.29,0a4.52,4.52,0,0,1-.63-.08A6,6,0,0,1,21,53.55a4.27,4.27,0,0,1-1-.64,3.57,3.57,0,0,1-.68-.8,3.14,3.14,0,0,1-.46-1.44A2,2,0,0,1,18.91,50.12Z"/><path class="cls-17" d="M20.11,51.17s.42-.1,1.05-.19a17.22,17.22,0,0,1,2.31-.15,19.22,19.22,0,0,1,2.31.14,10.36,10.36,0,0,1,1,.2,10.36,10.36,0,0,1-1,.2,19.13,19.13,0,0,1-4.62,0A10.36,10.36,0,0,1,20.11,51.17Z"/><path class="cls-17" d="M22.05,50.12a1.64,1.64,0,0,1,.2.36,2.26,2.26,0,0,1,0,1.62,1.64,1.64,0,0,1-.2.36,1.94,1.94,0,0,1-.19-.36,2.25,2.25,0,0,1-.15-.81,2.49,2.49,0,0,1,.15-.81A1.94,1.94,0,0,1,22.05,50.12Z"/><path class="cls-17" d="M24.32,50.12a1.64,1.64,0,0,1,.2.36,2.41,2.41,0,0,1,0,1.62,1.64,1.64,0,0,1-.2.36,1.64,1.64,0,0,1-.2-.36,2.41,2.41,0,0,1,0-1.62A1.64,1.64,0,0,1,24.32,50.12Z"/></g></g></g></svg>