<svg xmlns="http://www.w3.org/2000/svg" viewBox="0 0 54.13 78.89"><defs><style>.cls-1{isolation:isolate;}.cls-2{fill:#f6a774;}.cls-16,.cls-3{fill:#dadada;}.cls-11,.cls-3,.cls-7{mix-blend-mode:multiply;}.cls-4{fill:#f8bb94;}.cls-5{fill:#fff;}.cls-6{fill:#d42a26;}.cls-7{fill:#c6c6c6;}.cls-8{fill:#002838;}.cls-9{fill:#003446;}.cls-10{fill:#cc8a64;}.cls-11{fill:#ededed;}.cls-12{fill:#313130;}.cls-13{fill:#66301a;}.cls-14{fill:#da9668;}.cls-15{fill:#d19064;}.cls-17{fill:#b15336;}</style></defs><g class="cls-1"><g id="Ebene_2" data-name="Ebene 2"><g id="Capa_1" data-name="Capa 1"><rect class="cls-2" x="22.3" y="55.69" width="9.09" height="5.4"/><path class="cls-3" d="M28.06,60.38c-1.91-.61-3.5-1.81-3.74-3.9a1.89,1.89,0,0,1,.07-.79H22.3V61.1h9.09v-.68A6.17,6.17,0,0,1,28.06,60.38Z"/><path class="cls-4" d="M54.12,78.89C54,73.22,52.67,68.72,47.87,67c-5.51-2-16.23-6.12-16.23-6.12H22.49S11.76,65,6.26,67C1.45,68.72.14,73.22,0,78.89Z"/><path class="cls-5" d="M54.12,78.89C54,73.22,52.67,68.72,47.87,67c-5.51-2-16.23-6.12-16.23-6.12H22.49S11.76,65,6.26,67C1.45,68.72.14,73.22,0,78.89Z"/><path class="cls-6" d="M25.16,68a1.12,1.12,0,0,1,.13-.15l-.13.15-.28,10.92h4.51L29,68l.88-4A2,2,0,0,0,29.94,62a2,2,0,0,0-1.2-1,9,9,0,0,0-2.44-.09,2,2,0,0,0-1.89.77,1.91,1.91,0,0,0-.13,2.23Z"/><path class="cls-7" d="M25,67.34S27.68,66,29,68a3.9,3.9,0,0,0-3.81,0Z"/><path class="cls-8" d="M54.12,78.89C54,73.22,52.67,68.72,47.87,67c-5.51-2-12-4.48-12-4.48L32.42,78.89Z"/><path class="cls-8" d="M22,78.89,18.33,62.47S11.76,65,6.26,67C1.45,68.72.14,73.22,0,78.89Z"/><polygon class="cls-7" points="27.06 60.87 22.69 71.54 18.33 62.47 27.06 60.87"/><path class="cls-5" d="M22.3,60.08a34.77,34.77,0,0,1-4,2.39l4.18,7.18a65.39,65.39,0,0,1,4.55-8.78Z"/><polygon class="cls-7" points="27.02 60.87 31.39 71.54 35.76 62.47 27.02 60.87"/><path class="cls-5" d="M31.78,60.08a36.06,36.06,0,0,0,4,2.39l-4.19,7.18A65.39,65.39,0,0,0,27,60.87Z"/><path class="cls-9" d="M14.62,74.19s3.71.3,2.55,1.51L12,77.49l.85,1.4H22L18.33,62.47l-7.68,2.91L11,71.54S10.93,74.93,14.62,74.19Z"/><path class="cls-9" d="M41.31,78.89l.82-1.4L37,75.7c-1.16-1.21,2.54-1.51,2.54-1.51,3.69.74,3.59-2.65,3.59-2.65l.38-6.16-7.67-2.91L32.37,78.89Z"/><path class="cls-2" d="M39.29,38.78c-.19,2.9,1.14,5.33,3,5.45s3.45-2.13,3.63-5-1.13-5.33-3-5.45S39.47,35.9,39.29,38.78Z"/><path class="cls-10" d="M41.87,37.75a4.06,4.06,0,0,1,0-.42,4.61,4.61,0,0,1,.3-1.06c.17-.4.47-.87.92-.93a1.37,1.37,0,0,1,.35,0l.18.06a1,1,0,0,1,.14.08,1.46,1.46,0,0,1,.51.58,2.73,2.73,0,0,1,.32.79,2.94,2.94,0,0,1,.12.81c0,.29,0,.58,0,.84s-.06.5-.08.72-.07.44-.1.63a3.78,3.78,0,0,1-.09.48c-.06.27-.08.43-.08.43l.19-.39c0-.13.13-.28.2-.46s.14-.39.21-.62a7.09,7.09,0,0,0,.18-.76,5.67,5.67,0,0,0,.11-.84,3.2,3.2,0,0,0-.09-1,3.38,3.38,0,0,0-.36-.94,2,2,0,0,0-.73-.78,1.69,1.69,0,0,0-.27-.13,1.58,1.58,0,0,0-.25,0,1.62,1.62,0,0,0-.54,0,1.34,1.34,0,0,0-.81.58,2.33,2.33,0,0,0-.33.75,3.92,3.92,0,0,0-.09,1.16A2.26,2.26,0,0,0,41.87,37.75Z"/><path class="cls-10" d="M41.87,37.75s-.21-.29,1-.46c0,0,1.34.08.76,1.56a3.83,3.83,0,0,0-.27,1c-.05.48.25,1.11,0,1.56a.9.9,0,0,1-1.55-.26c-.12-.47.38-1.34.61-1.7A1.13,1.13,0,0,0,41.87,37.75Z"/><path class="cls-10" d="M41.74,41.08a.24.24,0,0,0-.08.08.91.91,0,0,0-.14.28.71.71,0,0,0,0,.21.49.49,0,0,0,0,.24c0,.07,0,.16.06.25a2.53,2.53,0,0,0,.12.23,1.12,1.12,0,0,0,.17.2c.06.06.13.1.19.15a.83.83,0,0,0,.39.17,1.14,1.14,0,0,0,.41,0,2,2,0,0,0-.23-.33l-.11-.12c0-.05-.07-.11-.11-.15a.81.81,0,0,0-.12-.14,1.29,1.29,0,0,1-.09-.16,1.81,1.81,0,0,1-.19-.29.77.77,0,0,1-.07-.16.94.94,0,0,1-.06-.15A2.54,2.54,0,0,1,41.74,41.08Z"/><path class="cls-2" d="M8.82,28.53S6.74,50.26,17.38,57.09c0,0,5.31,5.23,11.7.65,0,0,9.47-5.11,11-9,0,0,8.18-35.28-11.67-36.42C28.44,12.32,11.48,8.4,8.82,28.53Z"/><path class="cls-11" d="M28.44,12.32A16.49,16.49,0,0,0,25.09,12a15.68,15.68,0,0,1,8,7.85A44.34,44.34,0,0,1,37.7,36.77c.39,7.51-3.47,15.17-10.22,18.8-2.82,1.52-6.34,3-9.57,2a8.93,8.93,0,0,0,11.17.2s9.47-5.11,11-9C40.11,48.74,48.29,13.46,28.44,12.32Z"/><path class="cls-12" d="M28.9,33.86a1.72,1.72,0,1,0,1.72-1.71A1.71,1.71,0,0,0,28.9,33.86Z"/><path class="cls-5" d="M30.52,32.76c-.14.2.06.58.44.85s.81.35.94.15-.06-.57-.44-.84S30.65,32.57,30.52,32.76Z"/><path class="cls-13" d="M27.36,28.13a1.3,1.3,0,0,0-.83,1.09s0,1,.86.9c0,0,6.13-.78,8.5.74C35.89,30.86,35.6,26.36,27.36,28.13Z"/><path class="cls-12" d="M18.61,33.86a1.71,1.71,0,1,1-1.71-1.71A1.71,1.71,0,0,1,18.61,33.86Z"/><path class="cls-5" d="M17,32.76c.13.2-.07.58-.45.85s-.8.35-.94.15.06-.57.44-.84S16.86,32.57,17,32.76Z"/><path class="cls-13" d="M20.16,28.13A1.3,1.3,0,0,1,21,29.22s0,1-.86.9c0,0-6.13-.78-8.5.74C11.62,30.86,11.91,26.36,20.16,28.13Z"/><path class="cls-14" d="M22.5,37.78a5.57,5.57,0,0,1,0,.58,12.16,12.16,0,0,1-.13,1.39,11.23,11.23,0,0,1-.4,1.73c0,.15-.09.31-.14.46l-.08.23,0,0v.05s.06-.19,0-.1h0a.21.21,0,0,1,0,.06,4.45,4.45,0,0,0-.1.72,2.23,2.23,0,0,0,0,.55.82.82,0,0,0,.13.37,2.23,2.23,0,0,0,1.12.63c.48.15.94.22,1.26.3l.53.11s-.15.14-.43.35a5.13,5.13,0,0,1-1.31.64,4,4,0,0,1-1,.16,3,3,0,0,1-1.36-.32,2.9,2.9,0,0,1-1.19-1.19A3.73,3.73,0,0,1,19,43a4.66,4.66,0,0,1,.11-1.4l.05-.2,0-.12h0v0l0-.07.11-.26.24-.49a6.71,6.71,0,0,1,1.21-1.57A5.45,5.45,0,0,1,22,38,2.58,2.58,0,0,1,22.5,37.78Z"/><path class="cls-5" d="M18.85,48.17h9.54s-.17,3.52-4.77,3.89C23.62,52.06,19.42,52.3,18.85,48.17Z"/><path class="cls-15" d="M18.06,48.17a12.54,12.54,0,0,1,1.81-.39,17.61,17.61,0,0,1,1.85-.21c.67-.06,1.4-.09,2.12-.09a26.9,26.9,0,0,1,4,.29,13.28,13.28,0,0,1,1.81.4,12.54,12.54,0,0,1-1.81.39,26.9,26.9,0,0,1-4,.29c-.72,0-1.45,0-2.12-.08s-1.31-.12-1.85-.21A12.54,12.54,0,0,1,18.06,48.17Z"/><path class="cls-15" d="M19,48.76a3.58,3.58,0,0,0,.23.49,4.18,4.18,0,0,0,.83,1,4.38,4.38,0,0,0,.68.49,6.56,6.56,0,0,0,.85.35,7.39,7.39,0,0,0,1,.19c.17,0,.35,0,.53,0l.28,0h.24a7,7,0,0,0,2-.31,4.68,4.68,0,0,0,1.57-.84,4.84,4.84,0,0,0,.9-1,5.38,5.38,0,0,0,.3-.46v.15a1.73,1.73,0,0,1,0,.41,3.47,3.47,0,0,1-.56,1.42,4.15,4.15,0,0,1-1.7,1.44,5.84,5.84,0,0,1-2.46.57h-.35l-.3,0c-.22,0-.43,0-.64-.09a5.39,5.39,0,0,1-1.2-.37c-.19-.1-.38-.18-.55-.29s-.32-.23-.47-.36a3.27,3.27,0,0,1-.69-.82,3.12,3.12,0,0,1-.48-1.46A2.12,2.12,0,0,1,19,48.76Z"/><path class="cls-16" d="M20.19,49.84s.43-.1,1.07-.19a18.64,18.64,0,0,1,4.72,0c.65.09,1.08.19,1.08.19A10.78,10.78,0,0,1,26,50a18,18,0,0,1-2.36.14A20,20,0,0,1,21.26,50C20.62,50,20.19,49.84,20.19,49.84Z"/><path class="cls-16" d="M22.18,48.76a1.83,1.83,0,0,1,.2.38,2.47,2.47,0,0,1,0,1.64,1.83,1.83,0,0,1-.2.38,1.83,1.83,0,0,1-.2-.38,2.47,2.47,0,0,1,0-1.64A1.83,1.83,0,0,1,22.18,48.76Z"/><path class="cls-16" d="M24.49,48.76a1.83,1.83,0,0,1,.2.38,2.47,2.47,0,0,1,0,1.64,1.83,1.83,0,0,1-.2.38,2.67,2.67,0,0,1-.2-.38,2.51,2.51,0,0,1-.14-.82,2.26,2.26,0,0,1,.15-.82A2.19,2.19,0,0,1,24.49,48.76Z"/><path class="cls-17" d="M44.51,18a36.85,36.85,0,0,1-.79,15.91c-1.56-.24-1.94,0-1.94,0l-.41,6.88h-1v-7.5c-.09-4.83-3.61-4.85-3.61-4.85a9.49,9.49,0,0,0,0-8C35.31,16.81,16.3,18,16.3,18c-7.26.14-5.39,8.85-5.39,8.85a2.06,2.06,0,0,0-2.09,2,30.81,30.81,0,0,0-.15,5.08S3.77,20.23,11,10.08a2,2,0,0,0,1.85,1.32S11.09,5.13,17,2.28c0,0-.64,2.28,1,3.13,0,0-.18-4,5.37-5.41,0,0,0,3.13,2.72,3.7,0,0,5.39-.71,9,1.71S40,5.41,39.27,3c0,0,1.39,2.85-.6,4.85A3.67,3.67,0,0,1,42.84,7s-2.93.29-1.06,3.56A23.29,23.29,0,0,1,44.51,18Z"/><path class="cls-15" d="M22,53a4.06,4.06,0,0,1,.5-.25,2.35,2.35,0,0,1,.86-.2,2.12,2.12,0,0,1,.43.06,2.07,2.07,0,0,1,.42.14,2.63,2.63,0,0,1,.5.27,1.38,1.38,0,0,1-.33.5,1.29,1.29,0,0,1-.45.29,1.52,1.52,0,0,1-1.16,0,1.29,1.29,0,0,1-.45-.29A1.15,1.15,0,0,1,22,53Z"/></g></g></g></svg>