<svg width="134" height="145" viewBox="0 0 134 145" fill="none" xmlns="http://www.w3.org/2000/svg">
<g filter="url(#filter0_d_8_52)">
<rect x="8" width="109.751" height="137" rx="10" fill="#0F306C"/>
<rect x="11.5276" y="4.28453" width="102.696" height="128.431" rx="7.5" stroke="white"/>
<path d="M66.5739 51.0909L65.9091 75.5341H59.6705L58.9886 51.0909H66.5739ZM62.7898 86.4432C61.6648 86.4432 60.6989 86.0455 59.892 85.25C59.0852 84.4432 58.6875 83.4773 58.6989 82.3523C58.6875 81.2386 59.0852 80.2841 59.892 79.4886C60.6989 78.6932 61.6648 78.2955 62.7898 78.2955C63.8693 78.2955 64.8182 78.6932 65.6364 79.4886C66.4545 80.2841 66.8693 81.2386 66.8807 82.3523C66.8693 83.1023 66.6705 83.7898 66.2841 84.4148C65.9091 85.0284 65.4148 85.5227 64.8011 85.8977C64.1875 86.2614 63.517 86.4432 62.7898 86.4432Z" fill="white"/>
<rect x="16" width="109.751" height="137" rx="10" fill="#0F306C"/>
<rect x="19.5276" y="4.28453" width="102.696" height="128.431" rx="7.5" stroke="white"/>
<path d="M74.5739 51.0909L73.9091 75.5341H67.6705L66.9886 51.0909H74.5739ZM70.7898 86.4432C69.6648 86.4432 68.6989 86.0455 67.892 85.25C67.0852 84.4432 66.6875 83.4773 66.6989 82.3523C66.6875 81.2386 67.0852 80.2841 67.892 79.4886C68.6989 78.6932 69.6648 78.2955 70.7898 78.2955C71.8693 78.2955 72.8182 78.6932 73.6364 79.4886C74.4545 80.2841 74.8693 81.2386 74.8807 82.3523C74.8693 83.1023 74.6705 83.7898 74.2841 84.4148C73.9091 85.0284 73.4148 85.5227 72.8011 85.8977C72.1875 86.2614 71.517 86.4432 70.7898 86.4432Z" fill="white"/>
<rect x="24" width="109.751" height="137" rx="10" fill="#0F306C"/>
<rect x="27.5276" y="4.28453" width="102.696" height="128.431" rx="7.5" stroke="white"/>
<path d="M82.5739 51.0909L81.9091 75.5341H75.6705L74.9886 51.0909H82.5739ZM78.7898 86.4432C77.6648 86.4432 76.6989 86.0455 75.892 85.25C75.0852 84.4432 74.6875 83.4773 74.6989 82.3523C74.6875 81.2386 75.0852 80.2841 75.892 79.4886C76.6989 78.6932 77.6648 78.2955 78.7898 78.2955C79.8693 78.2955 80.8182 78.6932 81.6364 79.4886C82.4545 80.2841 82.8693 81.2386 82.8807 82.3523C82.8693 83.1023 82.6705 83.7898 82.2841 84.4148C81.9091 85.0284 81.4148 85.5227 80.8011 85.8977C80.1875 86.2614 79.517 86.4432 78.7898 86.4432Z" fill="white"/>
</g>
<defs>
<filter id="filter0_d_8_52" x="0" y="0" width="133.751" height="145" filterUnits="userSpaceOnUse" color-interpolation-filters="sRGB">
<feFlood flood-opacity="0" result="BackgroundImageFix"/>
<feColorMatrix in="SourceAlpha" type="matrix" values="0 0 0 0 0 0 0 0 0 0 0 0 0 0 0 0 0 0 127 0" result="hardAlpha"/>
<feOffset dx="-4" dy="4"/>
<feGaussianBlur stdDeviation="2"/>
<feComposite in2="hardAlpha" operator="out"/>
<feColorMatrix type="matrix" values="0 0 0 0 0 0 0 0 0 0 0 0 0 0 0 0 0 0 0.4 0"/>
<feBlend mode="normal" in2="BackgroundImageFix" result="effect1_dropShadow_8_52"/>
<feBlend mode="normal" in="SourceGraphic" in2="effect1_dropShadow_8_52" result="shape"/>
</filter>
</defs>
</svg>
