<svg width="110" height="137" viewBox="0 0 110 137" fill="none" xmlns="http://www.w3.org/2000/svg">
<rect width="109.751" height="137" rx="10" fill="#0F306C"/>
<rect x="3.52762" y="4.28453" width="102.696" height="128.431" rx="7.5" stroke="white"/>
<path d="M58.5739 51.0909L57.9091 75.5341H51.6705L50.9886 51.0909H58.5739ZM54.7898 86.4432C53.6648 86.4432 52.6989 86.0455 51.892 85.25C51.0852 84.4432 50.6875 83.4773 50.6989 82.3523C50.6875 81.2386 51.0852 80.2841 51.892 79.4886C52.6989 78.6932 53.6648 78.2955 54.7898 78.2955C55.8693 78.2955 56.8182 78.6932 57.6364 79.4886C58.4545 80.2841 58.8693 81.2386 58.8807 82.3523C58.8693 83.1023 58.6705 83.7898 58.2841 84.4148C57.9091 85.0284 57.4148 85.5227 56.8011 85.8977C56.1875 86.2614 55.517 86.4432 54.7898 86.4432Z" fill="white"/>
</svg>
