<svg width="133" height="145" viewBox="0 0 133 145" fill="none" xmlns="http://www.w3.org/2000/svg">
<g filter="url(#filter0_d_8_53)">
<rect x="8" width="109.751" height="137" rx="10" fill="#0F306C"/>
<rect x="11.5276" y="4.28453" width="102.696" height="128.431" rx="7.5" stroke="white"/>
<path d="M31.5176 74.8932V74.3137C31.5289 72.325 31.7051 70.7398 32.046 69.558C32.3983 68.3762 32.9096 67.4216 33.5801 66.6943C34.2505 65.9671 35.0574 65.308 36.0005 64.7171C36.7051 64.2625 37.3358 63.7909 37.8926 63.3023C38.4494 62.8137 38.8926 62.2739 39.2221 61.683C39.5517 61.0807 39.7164 60.4103 39.7164 59.6716C39.7164 58.8875 39.5289 58.2 39.1539 57.6091C38.7789 57.0182 38.2733 56.5637 37.6369 56.2455C37.0119 55.9273 36.3187 55.7682 35.5574 55.7682C34.8187 55.7682 34.1199 55.933 33.4608 56.2625C32.8017 56.5807 32.2619 57.058 31.8414 57.6943C31.421 58.3193 31.1937 59.0978 31.1596 60.0296H24.2051C24.2619 57.7568 24.8074 55.8818 25.8414 54.4046C26.8755 52.9159 28.2449 51.808 29.9494 51.0807C31.6539 50.3421 33.5346 49.9728 35.5914 49.9728C37.8528 49.9728 39.8528 50.3478 41.5914 51.0978C43.3301 51.8364 44.6937 52.9103 45.6824 54.3193C46.671 55.7284 47.1653 57.4273 47.1653 59.4159C47.1653 60.7455 46.9437 61.9273 46.5005 62.9614C46.0687 63.9841 45.4608 64.8932 44.6767 65.6887C43.8926 66.4728 42.9664 67.183 41.8983 67.8193C41.0005 68.3534 40.2619 68.9103 39.6824 69.4898C39.1142 70.0693 38.688 70.7398 38.4039 71.5012C38.1312 72.2625 37.9892 73.2 37.9778 74.3137V74.8932H31.5176ZM34.8926 85.8023C33.7562 85.8023 32.7846 85.4046 31.9778 84.6091C31.1824 83.8023 30.7903 82.8364 30.8017 81.7114C30.7903 80.5978 31.1824 79.6432 31.9778 78.8478C32.7846 78.0523 33.7562 77.6546 34.8926 77.6546C35.9721 77.6546 36.921 78.0523 37.7392 78.8478C38.5574 79.6432 38.9721 80.5978 38.9835 81.7114C38.9721 82.4614 38.7733 83.1489 38.3869 83.7739C38.0119 84.3875 37.5176 84.8818 36.9039 85.2568C36.2903 85.6205 35.6199 85.8023 34.8926 85.8023ZM58.5176 74.8932V74.3137C58.5289 72.325 58.7051 70.7398 59.046 69.558C59.3983 68.3762 59.9096 67.4216 60.5801 66.6943C61.2505 65.9671 62.0574 65.308 63.0005 64.7171C63.7051 64.2625 64.3358 63.7909 64.8926 63.3023C65.4494 62.8137 65.8926 62.2739 66.2221 61.683C66.5517 61.0807 66.7164 60.4103 66.7164 59.6716C66.7164 58.8875 66.5289 58.2 66.1539 57.6091C65.7789 57.0182 65.2733 56.5637 64.6369 56.2455C64.0119 55.9273 63.3187 55.7682 62.5574 55.7682C61.8187 55.7682 61.1199 55.933 60.4608 56.2625C59.8017 56.5807 59.2619 57.058 58.8414 57.6943C58.421 58.3193 58.1937 59.0978 58.1596 60.0296H51.2051C51.2619 57.7568 51.8074 55.8818 52.8414 54.4046C53.8755 52.9159 55.2449 51.808 56.9494 51.0807C58.6539 50.3421 60.5346 49.9728 62.5914 49.9728C64.8528 49.9728 66.8528 50.3478 68.5914 51.0978C70.3301 51.8364 71.6937 52.9103 72.6824 54.3193C73.671 55.7284 74.1653 57.4273 74.1653 59.4159C74.1653 60.7455 73.9437 61.9273 73.5005 62.9614C73.0687 63.9841 72.4608 64.8932 71.6767 65.6887C70.8926 66.4728 69.9664 67.183 68.8983 67.8193C68.0005 68.3534 67.2619 68.9103 66.6824 69.4898C66.1142 70.0693 65.688 70.7398 65.4039 71.5012C65.1312 72.2625 64.9892 73.2 64.9778 74.3137V74.8932H58.5176ZM61.8926 85.8023C60.7562 85.8023 59.7846 85.4046 58.9778 84.6091C58.1824 83.8023 57.7903 82.8364 57.8017 81.7114C57.7903 80.5978 58.1824 79.6432 58.9778 78.8478C59.7846 78.0523 60.7562 77.6546 61.8926 77.6546C62.9721 77.6546 63.921 78.0523 64.7392 78.8478C65.5574 79.6432 65.9721 80.5978 65.9835 81.7114C65.9721 82.4614 65.7733 83.1489 65.3869 83.7739C65.0119 84.3875 64.5176 84.8818 63.9039 85.2568C63.2903 85.6205 62.6199 85.8023 61.8926 85.8023ZM85.5176 74.8932V74.3137C85.5289 72.325 85.7051 70.7398 86.046 69.558C86.3983 68.3762 86.9096 67.4216 87.5801 66.6943C88.2505 65.9671 89.0574 65.308 90.0005 64.7171C90.7051 64.2625 91.3358 63.7909 91.8926 63.3023C92.4494 62.8137 92.8926 62.2739 93.2221 61.683C93.5517 61.0807 93.7164 60.4103 93.7164 59.6716C93.7164 58.8875 93.5289 58.2 93.1539 57.6091C92.7789 57.0182 92.2733 56.5637 91.6369 56.2455C91.0119 55.9273 90.3187 55.7682 89.5574 55.7682C88.8187 55.7682 88.1199 55.933 87.4608 56.2625C86.8017 56.5807 86.2619 57.058 85.8414 57.6943C85.421 58.3193 85.1937 59.0978 85.1596 60.0296H78.2051C78.2619 57.7568 78.8074 55.8818 79.8414 54.4046C80.8755 52.9159 82.2449 51.808 83.9494 51.0807C85.6539 50.3421 87.5346 49.9728 89.5914 49.9728C91.8528 49.9728 93.8528 50.3478 95.5914 51.0978C97.3301 51.8364 98.6937 52.9103 99.6824 54.3193C100.671 55.7284 101.165 57.4273 101.165 59.4159C101.165 60.7455 100.944 61.9273 100.501 62.9614C100.069 63.9841 99.4608 64.8932 98.6767 65.6887C97.8926 66.4728 96.9664 67.183 95.8983 67.8193C95.0005 68.3534 94.2619 68.9103 93.6824 69.4898C93.1142 70.0693 92.688 70.7398 92.4039 71.5012C92.1312 72.2625 91.9892 73.2 91.9778 74.3137V74.8932H85.5176ZM88.8926 85.8023C87.7562 85.8023 86.7846 85.4046 85.9778 84.6091C85.1824 83.8023 84.7903 82.8364 84.8017 81.7114C84.7903 80.5978 85.1824 79.6432 85.9778 78.8478C86.7846 78.0523 87.7562 77.6546 88.8926 77.6546C89.9721 77.6546 90.921 78.0523 91.7392 78.8478C92.5574 79.6432 92.9721 80.5978 92.9835 81.7114C92.9721 82.4614 92.7733 83.1489 92.3869 83.7739C92.0119 84.3875 91.5176 84.8818 90.9039 85.2568C90.2903 85.6205 89.6199 85.8023 88.8926 85.8023Z" fill="white"/>
<rect x="16" width="109.751" height="137" rx="10" fill="#0F306C"/>
<rect x="19.5276" y="4.28453" width="102.696" height="128.431" rx="7.5" stroke="white"/>
<path d="M39.5176 74.8932V74.3137C39.5289 72.325 39.7051 70.7398 40.046 69.558C40.3983 68.3762 40.9096 67.4216 41.5801 66.6943C42.2505 65.9671 43.0574 65.308 44.0005 64.7171C44.7051 64.2625 45.3358 63.7909 45.8926 63.3023C46.4494 62.8137 46.8926 62.2739 47.2221 61.683C47.5517 61.0807 47.7164 60.4103 47.7164 59.6716C47.7164 58.8875 47.5289 58.2 47.1539 57.6091C46.7789 57.0182 46.2733 56.5637 45.6369 56.2455C45.0119 55.9273 44.3187 55.7682 43.5574 55.7682C42.8187 55.7682 42.1199 55.933 41.4608 56.2625C40.8017 56.5807 40.2619 57.058 39.8414 57.6943C39.421 58.3193 39.1937 59.0978 39.1596 60.0296H32.2051C32.2619 57.7568 32.8074 55.8818 33.8414 54.4046C34.8755 52.9159 36.2449 51.808 37.9494 51.0807C39.6539 50.3421 41.5346 49.9728 43.5914 49.9728C45.8528 49.9728 47.8528 50.3478 49.5914 51.0978C51.3301 51.8364 52.6937 52.9103 53.6824 54.3193C54.671 55.7284 55.1653 57.4273 55.1653 59.4159C55.1653 60.7455 54.9437 61.9273 54.5005 62.9614C54.0687 63.9841 53.4608 64.8932 52.6767 65.6887C51.8926 66.4728 50.9664 67.183 49.8983 67.8193C49.0005 68.3534 48.2619 68.9103 47.6824 69.4898C47.1142 70.0693 46.688 70.7398 46.4039 71.5012C46.1312 72.2625 45.9892 73.2 45.9778 74.3137V74.8932H39.5176ZM42.8926 85.8023C41.7562 85.8023 40.7846 85.4046 39.9778 84.6091C39.1824 83.8023 38.7903 82.8364 38.8017 81.7114C38.7903 80.5978 39.1824 79.6432 39.9778 78.8478C40.7846 78.0523 41.7562 77.6546 42.8926 77.6546C43.9721 77.6546 44.921 78.0523 45.7392 78.8478C46.5574 79.6432 46.9721 80.5978 46.9835 81.7114C46.9721 82.4614 46.7733 83.1489 46.3869 83.7739C46.0119 84.3875 45.5176 84.8818 44.9039 85.2568C44.2903 85.6205 43.6199 85.8023 42.8926 85.8023ZM66.5176 74.8932V74.3137C66.5289 72.325 66.7051 70.7398 67.046 69.558C67.3983 68.3762 67.9096 67.4216 68.5801 66.6943C69.2505 65.9671 70.0574 65.308 71.0005 64.7171C71.7051 64.2625 72.3358 63.7909 72.8926 63.3023C73.4494 62.8137 73.8926 62.2739 74.2221 61.683C74.5517 61.0807 74.7164 60.4103 74.7164 59.6716C74.7164 58.8875 74.5289 58.2 74.1539 57.6091C73.7789 57.0182 73.2733 56.5637 72.6369 56.2455C72.0119 55.9273 71.3187 55.7682 70.5574 55.7682C69.8187 55.7682 69.1199 55.933 68.4608 56.2625C67.8017 56.5807 67.2619 57.058 66.8414 57.6943C66.421 58.3193 66.1937 59.0978 66.1596 60.0296H59.2051C59.2619 57.7568 59.8074 55.8818 60.8414 54.4046C61.8755 52.9159 63.2449 51.808 64.9494 51.0807C66.6539 50.3421 68.5346 49.9728 70.5914 49.9728C72.8528 49.9728 74.8528 50.3478 76.5914 51.0978C78.3301 51.8364 79.6937 52.9103 80.6824 54.3193C81.671 55.7284 82.1653 57.4273 82.1653 59.4159C82.1653 60.7455 81.9437 61.9273 81.5005 62.9614C81.0687 63.9841 80.4608 64.8932 79.6767 65.6887C78.8926 66.4728 77.9664 67.183 76.8983 67.8193C76.0005 68.3534 75.2619 68.9103 74.6824 69.4898C74.1142 70.0693 73.688 70.7398 73.4039 71.5012C73.1312 72.2625 72.9892 73.2 72.9778 74.3137V74.8932H66.5176ZM69.8926 85.8023C68.7562 85.8023 67.7846 85.4046 66.9778 84.6091C66.1824 83.8023 65.7903 82.8364 65.8017 81.7114C65.7903 80.5978 66.1824 79.6432 66.9778 78.8478C67.7846 78.0523 68.7562 77.6546 69.8926 77.6546C70.9721 77.6546 71.921 78.0523 72.7392 78.8478C73.5574 79.6432 73.9721 80.5978 73.9835 81.7114C73.9721 82.4614 73.7733 83.1489 73.3869 83.7739C73.0119 84.3875 72.5176 84.8818 71.9039 85.2568C71.2903 85.6205 70.6199 85.8023 69.8926 85.8023ZM93.5176 74.8932V74.3137C93.5289 72.325 93.7051 70.7398 94.046 69.558C94.3983 68.3762 94.9096 67.4216 95.5801 66.6943C96.2505 65.9671 97.0574 65.308 98.0005 64.7171C98.7051 64.2625 99.3358 63.7909 99.8926 63.3023C100.449 62.8137 100.893 62.2739 101.222 61.683C101.552 61.0807 101.716 60.4103 101.716 59.6716C101.716 58.8875 101.529 58.2 101.154 57.6091C100.779 57.0182 100.273 56.5637 99.6369 56.2455C99.0119 55.9273 98.3187 55.7682 97.5574 55.7682C96.8187 55.7682 96.1199 55.933 95.4608 56.2625C94.8017 56.5807 94.2619 57.058 93.8414 57.6943C93.421 58.3193 93.1937 59.0978 93.1596 60.0296H86.2051C86.2619 57.7568 86.8074 55.8818 87.8414 54.4046C88.8755 52.9159 90.2449 51.808 91.9494 51.0807C93.6539 50.3421 95.5346 49.9728 97.5914 49.9728C99.8528 49.9728 101.853 50.3478 103.591 51.0978C105.33 51.8364 106.694 52.9103 107.682 54.3193C108.671 55.7284 109.165 57.4273 109.165 59.4159C109.165 60.7455 108.944 61.9273 108.501 62.9614C108.069 63.9841 107.461 64.8932 106.677 65.6887C105.893 66.4728 104.966 67.183 103.898 67.8193C103.001 68.3534 102.262 68.9103 101.682 69.4898C101.114 70.0693 100.688 70.7398 100.404 71.5012C100.131 72.2625 99.9892 73.2 99.9778 74.3137V74.8932H93.5176ZM96.8926 85.8023C95.7562 85.8023 94.7846 85.4046 93.9778 84.6091C93.1824 83.8023 92.7903 82.8364 92.8017 81.7114C92.7903 80.5978 93.1824 79.6432 93.9778 78.8478C94.7846 78.0523 95.7562 77.6546 96.8926 77.6546C97.9721 77.6546 98.921 78.0523 99.7392 78.8478C100.557 79.6432 100.972 80.5978 100.983 81.7114C100.972 82.4614 100.773 83.1489 100.387 83.7739C100.012 84.3875 99.5176 84.8818 98.9039 85.2568C98.2903 85.6205 97.6199 85.8023 96.8926 85.8023Z" fill="white"/>
<rect x="23" width="109.751" height="137" rx="10" fill="#0F306C"/>
<rect x="26.5276" y="4.28453" width="102.696" height="128.431" rx="7.5" stroke="white"/>
<path d="M46.5176 74.8932V74.3137C46.5289 72.325 46.7051 70.7398 47.046 69.558C47.3983 68.3762 47.9096 67.4216 48.5801 66.6943C49.2505 65.9671 50.0574 65.308 51.0005 64.7171C51.7051 64.2625 52.3358 63.7909 52.8926 63.3023C53.4494 62.8137 53.8926 62.2739 54.2221 61.683C54.5517 61.0807 54.7164 60.4103 54.7164 59.6716C54.7164 58.8875 54.5289 58.2 54.1539 57.6091C53.7789 57.0182 53.2733 56.5637 52.6369 56.2455C52.0119 55.9273 51.3187 55.7682 50.5574 55.7682C49.8187 55.7682 49.1199 55.933 48.4608 56.2625C47.8017 56.5807 47.2619 57.058 46.8414 57.6943C46.421 58.3193 46.1937 59.0978 46.1596 60.0296H39.2051C39.2619 57.7568 39.8074 55.8818 40.8414 54.4046C41.8755 52.9159 43.2449 51.808 44.9494 51.0807C46.6539 50.3421 48.5346 49.9728 50.5914 49.9728C52.8528 49.9728 54.8528 50.3478 56.5914 51.0978C58.3301 51.8364 59.6937 52.9103 60.6824 54.3193C61.671 55.7284 62.1653 57.4273 62.1653 59.4159C62.1653 60.7455 61.9437 61.9273 61.5005 62.9614C61.0687 63.9841 60.4608 64.8932 59.6767 65.6887C58.8926 66.4728 57.9664 67.183 56.8983 67.8193C56.0005 68.3534 55.2619 68.9103 54.6824 69.4898C54.1142 70.0693 53.688 70.7398 53.4039 71.5012C53.1312 72.2625 52.9892 73.2 52.9778 74.3137V74.8932H46.5176ZM49.8926 85.8023C48.7562 85.8023 47.7846 85.4046 46.9778 84.6091C46.1824 83.8023 45.7903 82.8364 45.8017 81.7114C45.7903 80.5978 46.1824 79.6432 46.9778 78.8478C47.7846 78.0523 48.7562 77.6546 49.8926 77.6546C50.9721 77.6546 51.921 78.0523 52.7392 78.8478C53.5574 79.6432 53.9721 80.5978 53.9835 81.7114C53.9721 82.4614 53.7733 83.1489 53.3869 83.7739C53.0119 84.3875 52.5176 84.8818 51.9039 85.2568C51.2903 85.6205 50.6199 85.8023 49.8926 85.8023ZM73.5176 74.8932V74.3137C73.5289 72.325 73.7051 70.7398 74.046 69.558C74.3983 68.3762 74.9096 67.4216 75.5801 66.6943C76.2505 65.9671 77.0574 65.308 78.0005 64.7171C78.7051 64.2625 79.3358 63.7909 79.8926 63.3023C80.4494 62.8137 80.8926 62.2739 81.2221 61.683C81.5517 61.0807 81.7164 60.4103 81.7164 59.6716C81.7164 58.8875 81.5289 58.2 81.1539 57.6091C80.7789 57.0182 80.2733 56.5637 79.6369 56.2455C79.0119 55.9273 78.3187 55.7682 77.5574 55.7682C76.8187 55.7682 76.1199 55.933 75.4608 56.2625C74.8017 56.5807 74.2619 57.058 73.8414 57.6943C73.421 58.3193 73.1937 59.0978 73.1596 60.0296H66.2051C66.2619 57.7568 66.8074 55.8818 67.8414 54.4046C68.8755 52.9159 70.2449 51.808 71.9494 51.0807C73.6539 50.3421 75.5346 49.9728 77.5914 49.9728C79.8528 49.9728 81.8528 50.3478 83.5914 51.0978C85.3301 51.8364 86.6937 52.9103 87.6824 54.3193C88.671 55.7284 89.1653 57.4273 89.1653 59.4159C89.1653 60.7455 88.9437 61.9273 88.5005 62.9614C88.0687 63.9841 87.4608 64.8932 86.6767 65.6887C85.8926 66.4728 84.9664 67.183 83.8983 67.8193C83.0005 68.3534 82.2619 68.9103 81.6824 69.4898C81.1142 70.0693 80.688 70.7398 80.4039 71.5012C80.1312 72.2625 79.9892 73.2 79.9778 74.3137V74.8932H73.5176ZM76.8926 85.8023C75.7562 85.8023 74.7846 85.4046 73.9778 84.6091C73.1824 83.8023 72.7903 82.8364 72.8017 81.7114C72.7903 80.5978 73.1824 79.6432 73.9778 78.8478C74.7846 78.0523 75.7562 77.6546 76.8926 77.6546C77.9721 77.6546 78.921 78.0523 79.7392 78.8478C80.5574 79.6432 80.9721 80.5978 80.9835 81.7114C80.9721 82.4614 80.7733 83.1489 80.3869 83.7739C80.0119 84.3875 79.5176 84.8818 78.9039 85.2568C78.2903 85.6205 77.6199 85.8023 76.8926 85.8023ZM100.518 74.8932V74.3137C100.529 72.325 100.705 70.7398 101.046 69.558C101.398 68.3762 101.91 67.4216 102.58 66.6943C103.251 65.9671 104.057 65.308 105.001 64.7171C105.705 64.2625 106.336 63.7909 106.893 63.3023C107.449 62.8137 107.893 62.2739 108.222 61.683C108.552 61.0807 108.716 60.4103 108.716 59.6716C108.716 58.8875 108.529 58.2 108.154 57.6091C107.779 57.0182 107.273 56.5637 106.637 56.2455C106.012 55.9273 105.319 55.7682 104.557 55.7682C103.819 55.7682 103.12 55.933 102.461 56.2625C101.802 56.5807 101.262 57.058 100.841 57.6943C100.421 58.3193 100.194 59.0978 100.16 60.0296H93.2051C93.2619 57.7568 93.8074 55.8818 94.8414 54.4046C95.8755 52.9159 97.2449 51.808 98.9494 51.0807C100.654 50.3421 102.535 49.9728 104.591 49.9728C106.853 49.9728 108.853 50.3478 110.591 51.0978C112.33 51.8364 113.694 52.9103 114.682 54.3193C115.671 55.7284 116.165 57.4273 116.165 59.4159C116.165 60.7455 115.944 61.9273 115.501 62.9614C115.069 63.9841 114.461 64.8932 113.677 65.6887C112.893 66.4728 111.966 67.183 110.898 67.8193C110.001 68.3534 109.262 68.9103 108.682 69.4898C108.114 70.0693 107.688 70.7398 107.404 71.5012C107.131 72.2625 106.989 73.2 106.978 74.3137V74.8932H100.518ZM103.893 85.8023C102.756 85.8023 101.785 85.4046 100.978 84.6091C100.182 83.8023 99.7903 82.8364 99.8017 81.7114C99.7903 80.5978 100.182 79.6432 100.978 78.8478C101.785 78.0523 102.756 77.6546 103.893 77.6546C104.972 77.6546 105.921 78.0523 106.739 78.8478C107.557 79.6432 107.972 80.5978 107.983 81.7114C107.972 82.4614 107.773 83.1489 107.387 83.7739C107.012 84.3875 106.518 84.8818 105.904 85.2568C105.29 85.6205 104.62 85.8023 103.893 85.8023Z" fill="white"/>
</g>
<defs>
<filter id="filter0_d_8_53" x="0" y="0" width="132.751" height="145" filterUnits="userSpaceOnUse" color-interpolation-filters="sRGB">
<feFlood flood-opacity="0" result="BackgroundImageFix"/>
<feColorMatrix in="SourceAlpha" type="matrix" values="0 0 0 0 0 0 0 0 0 0 0 0 0 0 0 0 0 0 127 0" result="hardAlpha"/>
<feOffset dx="-4" dy="4"/>
<feGaussianBlur stdDeviation="2"/>
<feComposite in2="hardAlpha" operator="out"/>
<feColorMatrix type="matrix" values="0 0 0 0 0 0 0 0 0 0 0 0 0 0 0 0 0 0 0.4 0"/>
<feBlend mode="normal" in2="BackgroundImageFix" result="effect1_dropShadow_8_53"/>
<feBlend mode="normal" in="SourceGraphic" in2="effect1_dropShadow_8_53" result="shape"/>
</filter>
</defs>
</svg>
