<svg width="133" height="145" viewBox="0 0 133 145" fill="none" xmlns="http://www.w3.org/2000/svg">
<g filter="url(#filter0_d_8_51)">
<rect x="8" width="109.751" height="137" rx="10" fill="#0F306C"/>
<rect x="11.5276" y="4.28453" width="102.696" height="128.431" rx="7.5" stroke="white"/>
<path d="M57.1818 78.0455V77.2727C57.197 74.6212 57.4318 72.5076 57.8864 70.9318C58.3561 69.3561 59.0379 68.0833 59.9318 67.1136C60.8258 66.1439 61.9015 65.2652 63.1591 64.4773C64.0985 63.8712 64.9394 63.2424 65.6818 62.5909C66.4242 61.9394 67.0152 61.2197 67.4545 60.4318C67.8939 59.6288 68.1136 58.7348 68.1136 57.75C68.1136 56.7045 67.8636 55.7879 67.3636 55C66.8636 54.2121 66.1894 53.6061 65.3409 53.1818C64.5076 52.7576 63.5833 52.5455 62.5682 52.5455C61.5833 52.5455 60.6515 52.7651 59.7727 53.2045C58.8939 53.6288 58.1742 54.2652 57.6136 55.1136C57.053 55.947 56.75 56.9848 56.7045 58.2273H47.4318C47.5076 55.197 48.2348 52.697 49.6136 50.7273C50.9924 48.7424 52.8182 47.2652 55.0909 46.2955C57.3636 45.3106 59.8712 44.8182 62.6136 44.8182C65.6288 44.8182 68.2955 45.3182 70.6136 46.3182C72.9318 47.303 74.75 48.7348 76.0682 50.6136C77.3864 52.4924 78.0455 54.7576 78.0455 57.4091C78.0455 59.1818 77.75 60.7576 77.1591 62.1364C76.5833 63.5 75.7727 64.7121 74.7273 65.7727C73.6818 66.8182 72.447 67.7652 71.0227 68.6136C69.8258 69.3258 68.8409 70.0682 68.0682 70.8409C67.3106 71.6136 66.7424 72.5076 66.3636 73.5227C66 74.5379 65.8106 75.7879 65.7955 77.2727V78.0455H57.1818ZM61.6818 92.5909C60.1667 92.5909 58.8712 92.0606 57.7955 91C56.7348 89.9242 56.2121 88.6364 56.2273 87.1364C56.2121 85.6515 56.7348 84.3788 57.7955 83.3182C58.8712 82.2576 60.1667 81.7273 61.6818 81.7273C63.1212 81.7273 64.3864 82.2576 65.4773 83.3182C66.5682 84.3788 67.1212 85.6515 67.1364 87.1364C67.1212 88.1364 66.8561 89.053 66.3409 89.8864C65.8409 90.7045 65.1818 91.3636 64.3636 91.8636C63.5455 92.3485 62.6515 92.5909 61.6818 92.5909Z" fill="white"/>
<rect x="15" width="109.751" height="137" rx="10" fill="#0F306C"/>
<rect x="18.5276" y="4.28453" width="102.696" height="128.431" rx="7.5" stroke="white"/>
<path d="M64.1818 78.0455V77.2727C64.197 74.6212 64.4318 72.5076 64.8864 70.9318C65.3561 69.3561 66.0379 68.0833 66.9318 67.1136C67.8258 66.1439 68.9015 65.2652 70.1591 64.4773C71.0985 63.8712 71.9394 63.2424 72.6818 62.5909C73.4242 61.9394 74.0152 61.2197 74.4545 60.4318C74.8939 59.6288 75.1136 58.7348 75.1136 57.75C75.1136 56.7045 74.8636 55.7879 74.3636 55C73.8636 54.2121 73.1894 53.6061 72.3409 53.1818C71.5076 52.7576 70.5833 52.5455 69.5682 52.5455C68.5833 52.5455 67.6515 52.7651 66.7727 53.2045C65.8939 53.6288 65.1742 54.2652 64.6136 55.1136C64.053 55.947 63.75 56.9848 63.7045 58.2273H54.4318C54.5076 55.197 55.2348 52.697 56.6136 50.7273C57.9924 48.7424 59.8182 47.2652 62.0909 46.2955C64.3636 45.3106 66.8712 44.8182 69.6136 44.8182C72.6288 44.8182 75.2955 45.3182 77.6136 46.3182C79.9318 47.303 81.75 48.7348 83.0682 50.6136C84.3864 52.4924 85.0455 54.7576 85.0455 57.4091C85.0455 59.1818 84.75 60.7576 84.1591 62.1364C83.5833 63.5 82.7727 64.7121 81.7273 65.7727C80.6818 66.8182 79.447 67.7652 78.0227 68.6136C76.8258 69.3258 75.8409 70.0682 75.0682 70.8409C74.3106 71.6136 73.7424 72.5076 73.3636 73.5227C73 74.5379 72.8106 75.7879 72.7955 77.2727V78.0455H64.1818ZM68.6818 92.5909C67.1667 92.5909 65.8712 92.0606 64.7955 91C63.7348 89.9242 63.2121 88.6364 63.2273 87.1364C63.2121 85.6515 63.7348 84.3788 64.7955 83.3182C65.8712 82.2576 67.1667 81.7273 68.6818 81.7273C70.1212 81.7273 71.3864 82.2576 72.4773 83.3182C73.5682 84.3788 74.1212 85.6515 74.1364 87.1364C74.1212 88.1364 73.8561 89.053 73.3409 89.8864C72.8409 90.7045 72.1818 91.3636 71.3636 91.8636C70.5455 92.3485 69.6515 92.5909 68.6818 92.5909Z" fill="white"/>
<rect x="23" width="109.751" height="137" rx="10" fill="#0F306C"/>
<rect x="26.5276" y="4.28453" width="102.696" height="128.431" rx="7.5" stroke="white"/>
<path d="M72.1818 78.0455V77.2727C72.197 74.6212 72.4318 72.5076 72.8864 70.9318C73.3561 69.3561 74.0379 68.0833 74.9318 67.1136C75.8258 66.1439 76.9015 65.2652 78.1591 64.4773C79.0985 63.8712 79.9394 63.2424 80.6818 62.5909C81.4242 61.9394 82.0152 61.2197 82.4545 60.4318C82.8939 59.6288 83.1136 58.7348 83.1136 57.75C83.1136 56.7045 82.8636 55.7879 82.3636 55C81.8636 54.2121 81.1894 53.6061 80.3409 53.1818C79.5076 52.7576 78.5833 52.5455 77.5682 52.5455C76.5833 52.5455 75.6515 52.7651 74.7727 53.2045C73.8939 53.6288 73.1742 54.2652 72.6136 55.1136C72.053 55.947 71.75 56.9848 71.7045 58.2273H62.4318C62.5076 55.197 63.2348 52.697 64.6136 50.7273C65.9924 48.7424 67.8182 47.2652 70.0909 46.2955C72.3636 45.3106 74.8712 44.8182 77.6136 44.8182C80.6288 44.8182 83.2955 45.3182 85.6136 46.3182C87.9318 47.303 89.75 48.7348 91.0682 50.6136C92.3864 52.4924 93.0455 54.7576 93.0455 57.4091C93.0455 59.1818 92.75 60.7576 92.1591 62.1364C91.5833 63.5 90.7727 64.7121 89.7273 65.7727C88.6818 66.8182 87.447 67.7652 86.0227 68.6136C84.8258 69.3258 83.8409 70.0682 83.0682 70.8409C82.3106 71.6136 81.7424 72.5076 81.3636 73.5227C81 74.5379 80.8106 75.7879 80.7955 77.2727V78.0455H72.1818ZM76.6818 92.5909C75.1667 92.5909 73.8712 92.0606 72.7955 91C71.7348 89.9242 71.2121 88.6364 71.2273 87.1364C71.2121 85.6515 71.7348 84.3788 72.7955 83.3182C73.8712 82.2576 75.1667 81.7273 76.6818 81.7273C78.1212 81.7273 79.3864 82.2576 80.4773 83.3182C81.5682 84.3788 82.1212 85.6515 82.1364 87.1364C82.1212 88.1364 81.8561 89.053 81.3409 89.8864C80.8409 90.7045 80.1818 91.3636 79.3636 91.8636C78.5455 92.3485 77.6515 92.5909 76.6818 92.5909Z" fill="white"/>
</g>
<defs>
<filter id="filter0_d_8_51" x="0" y="0" width="132.751" height="145" filterUnits="userSpaceOnUse" color-interpolation-filters="sRGB">
<feFlood flood-opacity="0" result="BackgroundImageFix"/>
<feColorMatrix in="SourceAlpha" type="matrix" values="0 0 0 0 0 0 0 0 0 0 0 0 0 0 0 0 0 0 127 0" result="hardAlpha"/>
<feOffset dx="-4" dy="4"/>
<feGaussianBlur stdDeviation="2"/>
<feComposite in2="hardAlpha" operator="out"/>
<feColorMatrix type="matrix" values="0 0 0 0 0 0 0 0 0 0 0 0 0 0 0 0 0 0 0.4 0"/>
<feBlend mode="normal" in2="BackgroundImageFix" result="effect1_dropShadow_8_51"/>
<feBlend mode="normal" in="SourceGraphic" in2="effect1_dropShadow_8_51" result="shape"/>
</filter>
</defs>
</svg>
