<svg width="110" height="137" viewBox="0 0 110 137" fill="none" xmlns="http://www.w3.org/2000/svg">
<rect width="109.751" height="137" rx="10" fill="#0F306C"/>
<rect x="3.52763" y="4.28453" width="102.696" height="128.431" rx="7.5" stroke="white"/>
<path d="M49.1818 78.0455V77.2727C49.197 74.6212 49.4318 72.5076 49.8864 70.9318C50.3561 69.3561 51.0379 68.0833 51.9318 67.1136C52.8258 66.1439 53.9015 65.2652 55.1591 64.4773C56.0985 63.8712 56.9394 63.2424 57.6818 62.5909C58.4242 61.9394 59.0152 61.2197 59.4545 60.4318C59.8939 59.6288 60.1136 58.7348 60.1136 57.75C60.1136 56.7045 59.8636 55.7879 59.3636 55C58.8636 54.2121 58.1894 53.6061 57.3409 53.1818C56.5076 52.7576 55.5833 52.5455 54.5682 52.5455C53.5833 52.5455 52.6515 52.7651 51.7727 53.2045C50.8939 53.6288 50.1742 54.2652 49.6136 55.1136C49.053 55.947 48.75 56.9848 48.7045 58.2273H39.4318C39.5076 55.197 40.2348 52.697 41.6136 50.7273C42.9924 48.7424 44.8182 47.2652 47.0909 46.2955C49.3636 45.3106 51.8712 44.8182 54.6136 44.8182C57.6288 44.8182 60.2955 45.3182 62.6136 46.3182C64.9318 47.303 66.75 48.7348 68.0682 50.6136C69.3864 52.4924 70.0455 54.7576 70.0455 57.4091C70.0455 59.1818 69.75 60.7576 69.1591 62.1364C68.5833 63.5 67.7727 64.7121 66.7273 65.7727C65.6818 66.8182 64.447 67.7652 63.0227 68.6136C61.8258 69.3258 60.8409 70.0682 60.0682 70.8409C59.3106 71.6136 58.7424 72.5076 58.3636 73.5227C58 74.5379 57.8106 75.7879 57.7955 77.2727V78.0455H49.1818ZM53.6818 92.5909C52.1667 92.5909 50.8712 92.0606 49.7955 91C48.7348 89.9242 48.2121 88.6364 48.2273 87.1364C48.2121 85.6515 48.7348 84.3788 49.7955 83.3182C50.8712 82.2576 52.1667 81.7273 53.6818 81.7273C55.1212 81.7273 56.3864 82.2576 57.4773 83.3182C58.5682 84.3788 59.1212 85.6515 59.1364 87.1364C59.1212 88.1364 58.8561 89.053 58.3409 89.8864C57.8409 90.7045 57.1818 91.3636 56.3636 91.8636C55.5455 92.3485 54.6515 92.5909 53.6818 92.5909Z" fill="white"/>
</svg>
