<svg width="110" height="137" viewBox="0 0 110 137" fill="none" xmlns="http://www.w3.org/2000/svg">
<rect width="109.751" height="137" rx="10" fill="#0F306C"/>
<rect x="3.52763" y="4.28453" width="102.696" height="128.431" rx="7.5" stroke="white"/>
<path d="M23.5176 74.8932V74.3137C23.5289 72.325 23.7051 70.7398 24.046 69.558C24.3983 68.3762 24.9096 67.4216 25.5801 66.6943C26.2505 65.9671 27.0574 65.308 28.0005 64.7171C28.7051 64.2625 29.3358 63.7909 29.8926 63.3023C30.4494 62.8137 30.8926 62.2739 31.2221 61.683C31.5517 61.0807 31.7164 60.4103 31.7164 59.6716C31.7164 58.8875 31.5289 58.2 31.1539 57.6091C30.7789 57.0182 30.2733 56.5637 29.6369 56.2455C29.0119 55.9273 28.3187 55.7682 27.5574 55.7682C26.8187 55.7682 26.1199 55.933 25.4608 56.2625C24.8017 56.5807 24.2619 57.058 23.8414 57.6943C23.421 58.3193 23.1937 59.0978 23.1596 60.0296H16.2051C16.2619 57.7568 16.8074 55.8818 17.8414 54.4046C18.8755 52.9159 20.2449 51.808 21.9494 51.0807C23.6539 50.3421 25.5346 49.9728 27.5914 49.9728C29.8528 49.9728 31.8528 50.3478 33.5914 51.0978C35.3301 51.8364 36.6937 52.9103 37.6824 54.3193C38.671 55.7284 39.1653 57.4273 39.1653 59.4159C39.1653 60.7455 38.9437 61.9273 38.5005 62.9614C38.0687 63.9841 37.4608 64.8932 36.6767 65.6887C35.8926 66.4728 34.9664 67.183 33.8983 67.8193C33.0005 68.3534 32.2619 68.9103 31.6824 69.4898C31.1142 70.0693 30.688 70.7398 30.4039 71.5012C30.1312 72.2625 29.9892 73.2 29.9778 74.3137V74.8932H23.5176ZM26.8926 85.8023C25.7562 85.8023 24.7846 85.4046 23.9778 84.6091C23.1824 83.8023 22.7903 82.8364 22.8017 81.7114C22.7903 80.5978 23.1824 79.6432 23.9778 78.8478C24.7846 78.0523 25.7562 77.6546 26.8926 77.6546C27.9721 77.6546 28.921 78.0523 29.7392 78.8478C30.5574 79.6432 30.9721 80.5978 30.9835 81.7114C30.9721 82.4614 30.7733 83.1489 30.3869 83.7739C30.0119 84.3875 29.5176 84.8818 28.9039 85.2568C28.2903 85.6205 27.6199 85.8023 26.8926 85.8023ZM50.5176 74.8932V74.3137C50.5289 72.325 50.7051 70.7398 51.046 69.558C51.3983 68.3762 51.9096 67.4216 52.5801 66.6943C53.2505 65.9671 54.0574 65.308 55.0005 64.7171C55.7051 64.2625 56.3358 63.7909 56.8926 63.3023C57.4494 62.8137 57.8926 62.2739 58.2221 61.683C58.5517 61.0807 58.7164 60.4103 58.7164 59.6716C58.7164 58.8875 58.5289 58.2 58.1539 57.6091C57.7789 57.0182 57.2733 56.5637 56.6369 56.2455C56.0119 55.9273 55.3187 55.7682 54.5574 55.7682C53.8187 55.7682 53.1199 55.933 52.4608 56.2625C51.8017 56.5807 51.2619 57.058 50.8414 57.6943C50.421 58.3193 50.1937 59.0978 50.1596 60.0296H43.2051C43.2619 57.7568 43.8074 55.8818 44.8414 54.4046C45.8755 52.9159 47.2449 51.808 48.9494 51.0807C50.6539 50.3421 52.5346 49.9728 54.5914 49.9728C56.8528 49.9728 58.8528 50.3478 60.5914 51.0978C62.3301 51.8364 63.6937 52.9103 64.6824 54.3193C65.671 55.7284 66.1653 57.4273 66.1653 59.4159C66.1653 60.7455 65.9437 61.9273 65.5005 62.9614C65.0687 63.9841 64.4608 64.8932 63.6767 65.6887C62.8926 66.4728 61.9664 67.183 60.8983 67.8193C60.0005 68.3534 59.2619 68.9103 58.6824 69.4898C58.1142 70.0693 57.688 70.7398 57.4039 71.5012C57.1312 72.2625 56.9892 73.2 56.9778 74.3137V74.8932H50.5176ZM53.8926 85.8023C52.7562 85.8023 51.7846 85.4046 50.9778 84.6091C50.1824 83.8023 49.7903 82.8364 49.8017 81.7114C49.7903 80.5978 50.1824 79.6432 50.9778 78.8478C51.7846 78.0523 52.7562 77.6546 53.8926 77.6546C54.9721 77.6546 55.921 78.0523 56.7392 78.8478C57.5574 79.6432 57.9721 80.5978 57.9835 81.7114C57.9721 82.4614 57.7733 83.1489 57.3869 83.7739C57.0119 84.3875 56.5176 84.8818 55.9039 85.2568C55.2903 85.6205 54.6199 85.8023 53.8926 85.8023ZM77.5176 74.8932V74.3137C77.5289 72.325 77.7051 70.7398 78.046 69.558C78.3983 68.3762 78.9096 67.4216 79.5801 66.6943C80.2505 65.9671 81.0574 65.308 82.0005 64.7171C82.7051 64.2625 83.3358 63.7909 83.8926 63.3023C84.4494 62.8137 84.8926 62.2739 85.2221 61.683C85.5517 61.0807 85.7164 60.4103 85.7164 59.6716C85.7164 58.8875 85.5289 58.2 85.1539 57.6091C84.7789 57.0182 84.2733 56.5637 83.6369 56.2455C83.0119 55.9273 82.3187 55.7682 81.5574 55.7682C80.8187 55.7682 80.1199 55.933 79.4608 56.2625C78.8017 56.5807 78.2619 57.058 77.8414 57.6943C77.421 58.3193 77.1937 59.0978 77.1596 60.0296H70.2051C70.2619 57.7568 70.8074 55.8818 71.8414 54.4046C72.8755 52.9159 74.2449 51.808 75.9494 51.0807C77.6539 50.3421 79.5346 49.9728 81.5914 49.9728C83.8528 49.9728 85.8528 50.3478 87.5914 51.0978C89.3301 51.8364 90.6937 52.9103 91.6824 54.3193C92.671 55.7284 93.1653 57.4273 93.1653 59.4159C93.1653 60.7455 92.9437 61.9273 92.5005 62.9614C92.0687 63.9841 91.4608 64.8932 90.6767 65.6887C89.8926 66.4728 88.9664 67.183 87.8983 67.8193C87.0005 68.3534 86.2619 68.9103 85.6824 69.4898C85.1142 70.0693 84.688 70.7398 84.4039 71.5012C84.1312 72.2625 83.9892 73.2 83.9778 74.3137V74.8932H77.5176ZM80.8926 85.8023C79.7562 85.8023 78.7846 85.4046 77.9778 84.6091C77.1824 83.8023 76.7903 82.8364 76.8017 81.7114C76.7903 80.5978 77.1824 79.6432 77.9778 78.8478C78.7846 78.0523 79.7562 77.6546 80.8926 77.6546C81.9721 77.6546 82.921 78.0523 83.7392 78.8478C84.5574 79.6432 84.9721 80.5978 84.9835 81.7114C84.9721 82.4614 84.7733 83.1489 84.3869 83.7739C84.0119 84.3875 83.5176 84.8818 82.9039 85.2568C82.2903 85.6205 81.6199 85.8023 80.8926 85.8023Z" fill="white"/>
</svg>
